<svg width="81" height="80" viewBox="0 0 81 80" fill="none" xmlns="http://www.w3.org/2000/svg">
<path fill-rule="evenodd" clip-rule="evenodd" d="M41.2866 0.197311C42.6585 0.959491 42.0846 3.14832 40.5128 3.14832C39.7109 3.14832 38.9302 2.37345 38.9302 1.57748C38.9302 0.386548 40.2433 -0.382453 41.2866 0.197311ZM60.5699 4.65317C61.2079 4.93107 61.6499 5.77907 61.4924 6.42292C61.3708 6.92067 50.5848 17.9013 49.8181 18.308C49.1898 18.6413 48.6688 18.5861 48.1265 18.1286C47.4742 17.5783 47.3373 16.8124 47.7679 16.1216C48.2724 15.3119 58.8932 4.77372 59.3947 4.58496C59.9423 4.37891 59.9401 4.37875 60.5699 4.65317ZM21.7598 4.66332C22.2931 4.93758 32.3775 14.9392 33.091 15.9015C33.713 16.7405 33.6913 17.3141 33.0116 17.9954C32.4197 18.5886 31.9048 18.6779 31.2075 18.308C30.4408 17.9013 19.6547 6.92067 19.5332 6.42292C19.3706 5.75797 19.8177 4.92822 20.4903 4.64651C21.1656 4.36368 21.1773 4.36384 21.7598 4.66332ZM41.0844 6.47019C41.2681 6.54791 41.5709 6.80567 41.757 7.04281C42.086 7.46205 42.0953 7.60846 42.0953 12.3778C42.0953 17.6986 42.0562 17.9674 41.2294 18.3451C40.7046 18.5848 40.321 18.5848 39.7962 18.3451C38.9689 17.9673 38.9302 17.7002 38.9302 12.3587V7.4362L39.3654 6.95732C39.8326 6.44354 40.5443 6.24177 41.0844 6.47019ZM65.1328 15.853C65.6861 16.135 80.7697 34.9751 80.9339 35.5896C81.0306 35.9511 81.0211 36.2632 80.9058 36.517C80.81 36.7275 78.907 38.4722 76.6768 40.3941L72.6217 43.8885L69.1484 48.5796C67.2381 51.1596 65.675 53.3185 65.675 53.3768C65.675 53.4352 65.8861 53.8129 66.1442 54.2161C67.5416 56.3988 67.2876 59.1808 65.5147 61.1086C64.7834 61.9037 63.1862 62.7903 62.4846 62.7903C62.0373 62.7903 62.0352 62.7949 62.0352 63.8153C62.0352 64.4698 61.913 65.1725 61.6972 65.7584C61.033 67.5629 58.7632 69.2938 57.0611 69.2938C56.4853 69.2938 56.3381 69.4894 56.3381 70.2554C56.3381 70.508 56.2191 71.0198 56.0736 71.3924C55.2006 73.6283 53.2922 74.989 50.8981 75.0827L49.9353 75.1205L49.8157 75.6974C49.4881 77.2779 48.271 78.7915 46.71 79.56C45.9209 79.9483 45.6353 80.0006 44.3109 80C42.9676 79.9994 42.7168 79.9515 41.9556 79.5505C41.4871 79.3036 40.7676 78.7865 40.3567 78.4012C39.9458 78.0159 39.5642 77.7008 39.5087 77.7008C39.4531 77.7008 39.0891 77.9446 38.6997 78.2425C36.4474 79.9657 33.3528 79.8046 31.3539 77.8602C30.5517 77.0799 29.9367 75.8817 29.7275 74.6915L29.5667 73.7763L28.7589 73.6803C26.433 73.4042 24.4639 71.4472 24.0304 68.9811L23.8696 68.0659L23.0617 67.9699C20.7144 67.6912 18.7693 65.7511 18.3298 63.2503C18.1762 62.3766 18.1366 62.3144 17.7326 62.3144C16.3314 62.3144 14.4347 61.2106 13.5563 59.884C12.4339 58.1893 12.2531 56.2127 13.0567 54.428L13.4294 53.6002L10.8647 48.224L8.2999 42.8478L4.29483 39.3905C2.09194 37.4889 0.224556 35.7612 0.144798 35.5512C0.0652008 35.3412 0 35.0001 0 34.7935C0 34.3472 13.6814 16.3988 14.3637 15.9498C14.6414 15.767 14.976 15.6915 15.2967 15.7391C15.5821 15.7816 17.7288 17.0452 20.2945 18.6811L24.7922 21.5485H30.6082H36.4242L40.8196 22.8175C43.2371 23.5154 45.3499 24.0841 45.5147 24.0811C45.6794 24.078 47.8082 23.5243 50.2453 22.8505L54.6764 21.6254L59.2314 18.7209C63.7796 15.8208 64.4399 15.4999 65.1328 15.853ZM61.0505 21.3261C59.4596 22.338 58.063 23.2565 57.9472 23.3673C57.7736 23.533 58.9553 25.0571 64.6073 31.957C68.3862 36.5705 71.5604 40.3452 71.6609 40.3452C71.9863 40.3452 77.2082 35.7609 77.0961 35.5736C76.8179 35.1083 64.1571 19.4885 64.0574 19.4875C63.9944 19.4869 62.6413 20.3143 61.0505 21.3261ZM9.65343 27.04C6.4765 31.1862 3.8772 34.6342 3.8772 34.7021C3.8772 34.8293 9.18944 39.4611 9.34405 39.4685C9.39153 39.4709 12.2315 35.8978 15.6553 31.5285C20.8772 24.8642 21.8451 23.5508 21.6618 23.3773C21.39 23.12 15.6356 19.4836 15.5164 19.4939C15.4688 19.498 12.8304 22.8938 9.65343 27.04ZM18.2607 33.3765C14.5276 38.1369 11.486 42.0807 11.5015 42.1404C11.5495 42.325 15.6856 50.9651 15.7633 51.043C15.8036 51.0833 19.9111 47.041 24.891 42.0598C33.754 33.1945 33.9603 33.0013 34.6574 32.9133C35.0491 32.864 37.2211 32.7011 39.4841 32.5515C43.1634 32.3083 43.6465 32.3048 44.0508 32.5188C44.3931 32.7 45.0789 33.7768 46.8712 36.9482C48.1738 39.2528 49.3588 41.2706 49.5047 41.4321C50.9228 43.0036 53.6454 41.9453 53.6472 39.8218C53.6479 38.9985 53.7996 39.3025 50.2866 33.0873L47.4394 28.0503L46.6269 27.8147C46.18 27.6853 43.6422 26.9417 40.9875 26.1623L36.1608 24.7455L30.6044 24.7333L25.048 24.7209L18.2607 33.3765ZM52.9356 25.4159C52.1523 25.6303 51.2088 25.8857 50.8388 25.9833C50.4688 26.081 50.1662 26.2183 50.1662 26.2886C50.1662 26.359 51.4555 28.694 53.0314 31.4775C56.5685 37.725 56.6142 37.8155 56.7845 38.9037C57.1621 41.3174 55.9692 43.6604 53.7719 44.8209C53.011 45.2227 52.7859 45.2625 51.274 45.2625C49.762 45.2625 49.537 45.2227 48.7761 44.8209C47.4007 44.0946 46.8576 43.3871 44.5596 39.3286L42.3829 35.4843L41.804 35.5702C41.4854 35.6175 39.8951 35.7414 38.2699 35.8454L35.3146 36.0347L25.661 45.7244C17.0796 54.3381 15.9878 55.4892 15.8312 56.0885C15.307 58.0927 17.3637 59.8044 19.1961 58.889C19.4746 58.7497 22.1594 56.1413 25.1622 53.0924L30.622 47.5491L31.3017 47.5557C32.3775 47.5665 33.1089 48.5179 32.8467 49.5653C32.7821 49.8231 30.6406 52.1053 27.2281 55.5533C21.2518 61.5917 21.2072 61.6498 21.5153 63.0039C21.8481 64.4658 23.5436 65.2683 24.8932 64.6025C25.1717 64.4652 27.0731 62.6428 29.1186 60.5526L32.8375 56.7526L33.5677 56.7576C34.5845 56.7645 35.1322 57.3097 35.1322 58.3146V59.0303L31.2703 62.9327C28.066 66.1708 27.38 66.9432 27.241 67.4696C26.7592 69.2954 28.2722 70.8465 30.1844 70.4869C30.6726 70.3951 31.1885 69.9646 33.1516 68.0107C35.3737 65.7989 35.5667 65.6455 36.1268 65.6455C37.277 65.6455 38.0379 66.6381 37.6595 67.6451C37.5645 67.8976 36.5015 69.1034 35.2971 70.3248C32.8605 72.7959 32.6229 73.2143 32.9404 74.4777C33.3757 76.2105 35.475 76.8177 36.9154 75.6277L37.5033 75.1419L37.2278 74.6368C37.0178 74.252 36.9521 73.7542 36.9521 72.5455C36.9521 71.1178 36.9967 70.8722 37.3982 70.0869C38.1448 68.6271 39.3482 67.6078 40.8499 67.1633L41.4922 66.9733L41.5245 65.6353C41.5623 64.075 41.998 62.933 42.9646 61.8608C43.6869 61.0592 45.2183 60.2799 46.33 60.148C47.0996 60.0566 47.1594 60.0188 47.1594 59.6245C47.1594 58.9949 47.6103 57.5873 48.0208 56.9357C48.5228 56.1386 49.597 55.2023 50.4634 54.8067C51.0254 54.55 51.5164 54.4715 52.5834 54.4677L53.972 54.4626L54.1393 53.8281C54.5536 52.2574 55.9782 50.696 57.5331 50.1086C58.3144 49.8132 58.7032 49.7641 59.8197 49.8193C61.1309 49.884 61.9382 50.1646 63.0225 50.9328C63.2512 51.0947 63.3364 51.0744 63.5258 50.8124C63.6513 50.639 65.0043 48.8196 66.5326 46.7694C68.0608 44.7192 69.2943 42.9482 69.2735 42.834C69.206 42.4622 54.7274 24.9007 54.5408 24.9643C54.4414 24.9982 53.719 25.2014 52.9356 25.4159ZM58.221 53.3158C57.2435 53.9702 56.878 55.2311 57.3468 56.3315C57.6962 57.1517 60.1083 59.3967 60.8575 59.599C62.0786 59.9286 63.2441 59.3212 63.7033 58.116C64.1501 56.9435 63.9521 56.4302 62.4571 54.8849C61.7462 54.1501 60.9512 53.4159 60.69 53.253C60.0172 52.8334 58.8989 52.8618 58.221 53.3158ZM51.6508 57.8132C50.6653 58.2819 50.1781 59.3369 50.3987 60.5244C50.4911 61.0215 50.8959 61.5159 52.7516 63.398C53.9844 64.6482 55.1852 65.7725 55.4202 65.8963C56.0347 66.2198 57.1153 66.177 57.7242 65.8049C58.7579 65.1733 59.1901 63.6968 58.6437 62.6634C58.3269 62.0643 54.1294 57.9204 53.6478 57.7312C53.0456 57.4947 52.252 57.5273 51.6508 57.8132ZM46.1578 63.4825C45.0385 63.9512 44.414 65.2619 44.7609 66.4142C45.0152 67.259 49.38 71.5859 50.198 71.8041C51.5569 72.1669 52.9782 71.2334 53.1306 69.8782C53.1754 69.4799 53.1619 68.9535 53.1007 68.7085C52.9657 68.1679 48.7241 63.8048 48.0298 63.4923C47.4156 63.2159 46.8024 63.2125 46.1578 63.4825ZM41.2414 70.4463C40.145 71.0764 39.7296 72.4805 40.2895 73.6634C40.4278 73.9555 41.1338 74.7648 41.8581 75.462C42.831 76.3982 43.3237 76.7573 43.743 76.8363C44.6237 77.0017 45.4183 76.7811 45.9845 76.2135C46.4702 75.7267 46.8878 74.7158 46.7676 74.3181C46.7364 74.2157 46.6649 73.9225 46.6085 73.6668C46.5474 73.3897 46.0148 72.6926 45.2896 71.9409C43.5212 70.1074 42.4924 69.7276 41.2414 70.4463Z" fill="url(#paint0_linear_31_638)"/>
<defs>
<linearGradient id="paint0_linear_31_638" x1="40.5" y1="0" x2="41" y2="91.5" gradientUnits="userSpaceOnUse">
<stop stop-color="#52A863"/>
<stop offset="1" stop-color="#2AB7FF"/>
</linearGradient>
</defs>
</svg>
