<svg width="104" height="94" viewBox="0 0 104 94" fill="none" xmlns="http://www.w3.org/2000/svg">
<path fill-rule="evenodd" clip-rule="evenodd" d="M55.8556 0.206887C44.6037 2.04033 36.7495 12.1657 37.9019 23.352C38.8232 32.2946 45.1134 39.5332 53.9956 41.8722C56.3254 42.4857 60.2509 42.6264 62.7892 42.1873C71.8121 40.6265 78.7987 33.6397 80.3301 24.646C80.7433 22.2196 80.4777 17.7302 79.7843 15.4208C77.5701 8.04508 71.8076 2.50153 64.421 0.640488C61.8567 -0.00552869 58.2723 -0.186927 55.8556 0.206887ZM62.2533 4.28342C67.8822 5.3763 72.297 8.69173 74.7635 13.6783C79.6407 23.5379 74.0053 35.4276 63.24 37.9907C59.8023 38.8091 55.3901 38.435 52.2583 37.0596C47.3815 34.9176 43.639 30.4931 42.2788 25.2608C41.656 22.8652 41.7528 18.9501 42.4954 16.4903C45.0759 7.94454 53.6924 2.62111 62.2533 4.28342ZM57.4013 8.60467C57.0889 8.91485 56.8335 9.37839 56.8335 9.63466C56.8335 9.96173 56.595 10.2137 56.0333 10.4796C54.5716 11.1718 53.6402 12.0835 52.929 13.5182C52.0306 15.3305 51.9451 17.4339 52.7065 18.9901C53.6448 20.9081 55.984 22.4459 58.3714 22.7141C59.86 22.8814 61.0705 23.5274 61.7464 24.5153C62.8064 26.0647 61.9272 28.007 59.9143 28.5621C58.729 28.8889 58.108 28.8432 57.3287 28.3711C56.4669 27.8493 56.0391 27.0435 55.8427 25.572C55.6432 24.08 55.0373 23.4425 53.8179 23.4425C53.1597 23.4425 52.7972 23.5811 52.3851 23.9903C51.8757 24.4962 51.84 24.6554 51.9173 26.076C52.062 28.7413 53.5969 31.123 55.876 32.2187C56.4027 32.4718 56.8335 32.8192 56.8335 32.9905C56.8335 33.6389 57.8489 34.3521 58.772 34.3521C59.7051 34.3521 60.7106 33.6372 60.7106 32.9734C60.7106 32.777 61.2637 32.396 62.0859 32.0258C63.7158 31.2918 65.087 30.0034 65.7145 28.6166C66.3863 27.1312 66.3598 24.5634 65.6576 23.1216C64.6276 21.0075 62.0129 19.1435 59.6483 18.8376C57.9624 18.6196 56.8576 18.1199 56.4867 17.4076C55.7852 16.0604 56.726 14.2956 58.3927 13.8321C59.9987 13.3856 61.3568 14.2719 61.3568 15.7665C61.3568 17.7976 63.9497 18.6415 65.0127 16.9565C65.4024 16.3389 65.3354 14.2907 64.8893 13.1837C64.4811 12.1704 63.0487 10.8413 61.6726 10.199C61.1436 9.95189 60.7106 9.60172 60.7106 9.42032C60.7106 9.23914 60.4726 8.85474 60.1818 8.56595C59.4342 7.82325 58.1704 7.84079 57.4013 8.60467ZM92.9123 37.85C90.7663 38.4025 90.024 38.9942 83.6828 45.2081L77.4688 51.2974L76.8638 50.5684C76.0802 49.6241 74.8421 48.78 73.3927 48.2016C72.2743 47.7554 71.844 47.7346 60.926 47.6014C50.4003 47.473 49.4835 47.4318 47.6792 47.0061C46.613 46.7543 45.0136 46.3797 44.1251 46.1735C41.9313 45.664 36.8678 45.6702 34.7849 46.1849C32.7664 46.6837 30.3088 47.6799 28.5509 48.7122C25.8458 50.3008 22.6185 53.2626 20.5987 56.0103C20.3398 56.3628 20.2494 56.3538 19.0315 55.855C17.3295 55.1578 15.1544 55.1251 13.3856 55.7698C12.2812 56.1722 11.7619 56.6058 8.83813 59.5668C7.02278 61.4052 4.28467 64.2282 2.7532 65.84C-1.11875 69.9155 -1.27578 69.161 4.66828 75.0477C9.30619 79.6408 9.37942 79.7015 10.2783 79.7015C11.5381 79.7015 12.2466 78.9954 12.2466 77.7395C12.2466 76.8447 12.1783 76.7598 8.5831 73.1894C6.56808 71.1885 4.94464 69.4836 4.97522 69.4008C5.00581 69.3182 7.14577 67.0796 9.73073 64.4263C13.6376 60.4162 14.5735 59.564 15.2772 59.3758C17.0695 58.8966 17.066 58.8938 26.325 67.8394C31.0181 72.3735 34.9648 76.2817 35.0955 76.5245C35.4516 77.1851 35.407 78.6544 35.0089 79.3809C34.8155 79.7336 32.6303 82.092 30.1531 84.6215L25.6489 89.2207L24.2435 87.8837C23.0045 86.7048 22.7376 86.5468 21.9874 86.5468C20.8001 86.5468 20.0008 87.3487 20.0008 88.5398C20.0008 89.3608 20.1193 89.5176 22.3163 91.6049C24.7873 93.9526 25.5042 94.3218 26.5417 93.7821C26.8487 93.6223 29.5717 90.9666 32.5931 87.8805C39.0657 81.2691 39.2619 80.9818 39.272 78.0972C39.2757 77.0383 39.2057 75.975 39.1165 75.7341C38.8055 74.8943 41.8758 74.7225 59.9567 74.5676C74.4522 74.4436 76.4748 74.3858 77.6192 74.063C79.4571 73.5445 81.7455 72.4223 83.026 71.4111C84.1834 70.4973 101.396 50.5358 102.227 49.1435C102.493 48.6979 102.872 47.684 103.069 46.8899C103.689 44.3953 102.988 41.9436 101.074 39.911C99.232 37.9554 95.8348 37.0974 92.9123 37.85ZM97.4194 42.1098C98.4242 42.6778 99.2664 44.1148 99.2664 45.2616C99.2664 45.6952 99.0485 46.4458 98.7818 46.9295C98.2222 47.9449 82.2773 66.6069 80.8633 67.9015C79.8705 68.8104 78.4146 69.6284 76.973 70.0875C76.3212 70.2952 72.1503 70.3972 59.849 70.5069C44.9764 70.6396 43.2758 70.6915 39.9495 71.1138L36.3121 71.5759L34.4569 69.8175C28.0342 63.731 23.4471 59.265 23.4471 59.0985C23.4471 58.7794 25.4736 56.3526 26.7078 55.1938C29.5265 52.5475 32.3936 50.9309 35.6256 50.1658C38.2621 49.5416 41.7777 49.6592 44.9464 50.4779C49.0958 51.5496 50.7445 51.6706 61.2491 51.6762C67.3355 51.6794 71.2445 51.7648 71.7555 51.9057C73.5822 52.4095 74.9106 54.4094 74.6222 56.2214C74.4259 57.4548 73.5979 58.6386 72.5658 59.1617C71.7583 59.5709 71.3126 59.5938 64.1587 59.5938C56.1283 59.5938 55.4291 59.6723 54.9121 60.6312C54.4855 61.4229 54.6334 62.4844 55.2566 63.1034L55.8338 63.6765L64.2493 63.6138L72.6651 63.5511L74.0182 62.9306C76.4927 61.7958 78.2669 59.3726 78.6781 56.566C78.82 55.5983 79.0126 55.3852 85.5052 49.0089C90.0656 44.5302 92.4726 42.3184 93.0878 42.0409C94.3735 41.4612 96.3267 41.4923 97.4194 42.1098ZM47.282 60.2639C46.739 60.5773 46.294 61.7136 46.4325 62.433C46.5847 63.2239 47.4567 63.872 48.3686 63.872C49.3868 63.872 49.9234 63.5379 50.285 62.6784C50.5517 62.0443 50.5517 61.8492 50.285 61.2152C50.1157 60.8131 49.7816 60.3799 49.5423 60.2526C48.9907 59.9595 47.7991 59.9653 47.282 60.2639ZM14.7236 63.6326C13.7166 63.894 12.8458 64.4132 12.1091 65.1908C10.9835 66.3789 10.6429 67.2375 10.6382 68.899C10.6347 70.1617 10.7338 70.5756 11.2706 71.5404C12.5625 73.8619 15.3252 74.9163 17.8232 74.0412C19.1379 73.5804 20.0682 72.7853 20.7724 71.5202C21.2975 70.5769 21.3972 70.1559 21.3938 68.899C21.3877 66.7545 20.3424 65.0372 18.4551 64.0709C17.5479 63.6065 15.6726 63.3862 14.7236 63.6326ZM16.9853 67.9363C17.8783 68.8232 17.2743 70.2894 16.016 70.2894C14.7576 70.2894 14.1537 68.8232 15.0467 67.9363C15.2836 67.701 15.7198 67.5085 16.016 67.5085C16.3121 67.5085 16.7483 67.701 16.9853 67.9363ZM15.339 81.4111C14.6519 81.6864 14.1851 82.4775 14.1851 83.3667C14.1851 83.9852 14.3284 84.2754 14.8479 84.7095C15.8943 85.5839 17.3648 85.3266 17.9707 84.1627C18.3448 83.4444 18.3543 83.0976 18.0202 82.3695C17.5845 81.4195 16.3865 80.9912 15.339 81.4111Z" fill="url(#paint0_linear_31_645)"/>
<defs>
<linearGradient id="paint0_linear_31_645" x1="57.3486" y1="99" x2="58.8486" y2="3" gradientUnits="userSpaceOnUse">
<stop stop-color="#2AB7FF"/>
<stop offset="1" stop-color="#52A863"/>
</linearGradient>
</defs>
</svg>
