<svg width="109" height="109" viewBox="0 0 109 109" fill="none" xmlns="http://www.w3.org/2000/svg">
<path fill-rule="evenodd" clip-rule="evenodd" d="M14.0358 0.968479C9.5394 2.04052 9.16078 2.24356 9.16078 3.58516C9.16078 4.593 8.98514 4.43127 15.0654 9.02602L19.9039 12.6823L16.3256 14.4064L12.7472 16.1302L9.20789 14.3678C6.31468 12.9271 5.50822 12.6054 4.78976 12.6054C2.81488 12.6054 1.21242 14.1801 1.21242 16.1205C1.21242 17.1109 3.40112 24.4111 4.02556 25.5037C4.27583 25.9418 4.8074 26.4713 5.24243 26.7158C5.96786 27.1236 6.23714 27.1496 9.6718 27.1434L13.3288 27.1368L19.1447 24.9454C22.7732 23.5782 24.9817 22.8386 25.0166 22.9786C25.0476 23.1021 24.764 25.9703 24.3866 29.3524C23.5586 36.7731 23.5549 36.9124 24.1685 37.5261C25.1271 38.4851 25.3479 38.4332 29.8308 36.1939C33.0689 34.5765 34.0254 34.0124 34.2354 33.5964C34.3829 33.3039 35.6583 29.5918 37.0696 25.347L39.6356 17.6293L47.1419 13.8738C55.195 9.84498 55.6465 9.54497 56.0792 7.9373C56.4189 6.67599 56.015 5.39296 54.9781 4.43844C54.0037 3.54152 47.867 0 47.2871 0C46.9903 0 43.608 1.4853 39.7711 3.30086L32.795 6.60172L25.8165 3.39957C21.9784 1.63831 18.6453 0.159215 18.4098 0.112672C18.1742 0.0659356 16.2059 0.451078 14.0358 0.968479ZM86.2696 0.209443C85.518 0.647334 85.3488 1.40928 85.3488 4.3537V7.17536H83.3973C82.2793 7.17536 81.2652 7.27213 81.0227 7.40206C80.7897 7.52676 78.8778 8.92343 76.7738 10.5061C74.2763 12.3845 72.9135 13.5343 72.8477 13.8186C72.7923 14.0579 72.7254 15.1264 72.6988 16.193C72.6539 18.0049 72.6236 18.1362 72.2386 18.1911C72.012 18.2235 71.6194 18.4705 71.3662 18.7401C70.9099 19.2259 70.906 19.2678 70.906 23.5939V27.9575L71.5392 28.5234C72.0862 29.0125 72.3268 29.0893 73.3103 29.0893H74.4485L74.5721 29.9145C74.6402 30.3682 74.954 31.1917 75.2697 31.7446C76.9818 34.7435 80.9161 35.4028 83.5034 33.1245C84.5272 32.2232 85.3439 30.7144 85.3468 29.7196L85.3488 29.0893H89.0322H92.7155V29.5396C92.7155 31.0767 94.0561 33.0359 95.6937 33.8919C97.1182 34.6366 99.1692 34.6366 100.594 33.8919C102.223 33.04 103.572 31.0769 103.572 29.5563C103.572 29.136 103.641 29.1207 105.819 29.0575C108.004 28.9941 108.078 28.9776 108.533 28.4482L109 27.904V14.4634V1.02259L108.489 0.511196L107.978 0L97.2934 0.00581799C90.3975 0.00969656 86.4885 0.0818378 86.2696 0.209443ZM105.36 10.8763C105.39 14.8317 105.399 18.0825 105.381 18.1001C105.364 18.1178 101.678 18.1087 97.1907 18.0798L89.0322 18.027V10.8559V3.68464H97.1697H105.307L105.36 10.8763ZM21.1562 5.26904C22.8221 6.03389 25.0911 7.0749 26.1984 7.58261L28.2117 8.50571L27.5554 8.77663C27.1945 8.92556 26.096 9.37877 25.1145 9.7837C24.133 10.1888 23.217 10.4751 23.079 10.4198C22.9409 10.3645 21.0992 9.0041 18.9859 7.39682C15.382 4.65564 15.1777 4.46676 15.6903 4.35021C15.9909 4.28194 16.4985 4.15589 16.8184 4.06979C17.8487 3.79286 18.0804 3.85704 21.1562 5.26904ZM49.9066 5.47829L52.5852 7.07781L44.7741 10.9857C40.4779 13.135 36.8696 15.0114 36.7552 15.1553C36.641 15.2994 35.3572 18.9978 33.9025 23.374L31.2574 31.3307L29.431 32.2383L27.6047 33.1459L27.6952 32.5236C28.1973 29.0724 29.092 19.7101 28.9541 19.3496C28.7399 18.7892 28.195 18.3164 27.594 18.1694C27.2666 18.0893 24.8702 18.898 19.6297 20.857L12.1337 23.6593H9.61519H7.09692L6.06732 20.314C5.50104 18.4742 4.99468 16.8121 4.94195 16.6206C4.8708 16.3627 5.812 16.7523 8.57163 18.1236C10.6206 19.1417 12.4857 19.9717 12.716 19.9681C12.9465 19.9646 20.7247 16.3519 30.001 11.9398C39.2773 7.52792 46.9483 3.90921 47.0475 3.89835C47.1466 3.88749 48.4333 4.59843 49.9066 5.47829ZM61.7386 7.22384L61.7945 9.01768L63.5877 9.07353L65.3809 9.12919V7.27969V5.43H63.5319H61.683L61.7386 7.22384ZM69.0643 9.01768V10.86H70.906H72.7477V9.01768V7.17536H70.906H69.0643V9.01768ZM85.3488 14.4407V18.0214L80.8734 18.0769C78.412 18.1073 76.3838 18.1182 76.3661 18.1009C76.3485 18.0835 76.3632 17.4468 76.3989 16.6858L76.4637 15.3021L79.4038 13.0853L82.3439 10.8683L83.8463 10.8643L85.3488 10.86V14.4407ZM105.352 23.5627L105.414 25.4054L103.747 25.405C102.289 25.4046 102.035 25.3529 101.712 24.9892C100.174 23.2598 96.1136 23.2598 94.5756 24.9892C94.2162 25.3936 94.0726 25.4046 89.1964 25.4046H84.1866L83.2651 24.7536C82.0671 23.9069 81.2901 23.6589 79.8433 23.6612C78.5467 23.6632 77.0127 24.2469 76.3526 24.9892C76.0961 25.2778 75.7555 25.4046 75.2379 25.4046H74.4925V23.5623V21.72H89.8912H105.29L105.352 23.5627ZM80.9006 27.5437C81.5617 27.8976 81.9124 28.8252 81.6667 29.57C81.2296 30.8951 79.7279 31.2533 78.7425 30.2678C78.0202 29.545 77.9979 28.7487 78.6778 27.9406C79.2138 27.3032 80.1422 27.1376 80.9006 27.5437ZM99.3774 27.8551C100.126 28.6039 100.089 29.6614 99.2919 30.3326C98.5297 30.9743 97.7577 30.9743 96.9955 30.3326C96.5145 29.9276 96.3989 29.6819 96.3989 29.0633C96.3989 27.4678 98.2426 26.7201 99.3774 27.8551ZM10.9055 32.677V34.5193H12.7472H14.5889V32.677V30.8346H12.7472H10.9055V32.677ZM50.9632 31.1397C43.1585 32.3539 36.5658 37.3359 33.1117 44.6297C30.0933 51.004 30.1943 58.4 33.388 64.8691C34.6975 67.5215 35.9683 69.2979 37.9988 71.3151C41.153 74.4488 45.396 76.7259 49.8719 77.687C52.1572 78.1777 56.8921 78.1777 59.1773 77.687C66.4807 76.1187 72.5021 71.3969 75.7582 64.6853C80.173 55.5844 78.3226 44.9538 71.0578 37.6838C65.8838 32.5061 58.221 30.0106 50.9632 31.1397ZM55.5573 34.7836C56.8263 35.314 58.4637 37.6794 59.5606 40.5662C59.7762 41.1336 59.9526 41.6196 59.9526 41.6462C59.9528 41.6727 57.5043 41.6946 54.5116 41.6946H49.0703L49.1992 41.2583C49.5522 40.0629 51.2662 36.8061 51.9302 36.069C53.2864 34.5631 54.2299 34.2288 55.5573 34.7836ZM47.0351 37.0888C46.6449 37.8622 46.0908 39.193 45.8035 40.0462L45.2813 41.5977L42.1975 41.6514L39.1135 41.7049L40.373 40.4316C41.9106 38.8772 43.869 37.4984 46.0106 36.4625C46.8969 36.0337 47.6495 35.6829 47.6832 35.6829C47.7167 35.6829 47.4252 36.3155 47.0351 37.0888ZM63.7331 36.7966C65.3247 37.5977 67.336 39.0766 68.6762 40.4316L69.9357 41.7049L66.8518 41.6514L63.768 41.5977L63.2457 40.0462C62.9584 39.193 62.4069 37.8673 62.0199 37.1001L61.3162 35.7054L62.0401 36.0071C62.4381 36.1731 63.2 36.5284 63.7331 36.7966ZM9.01538 38.1545L7.22216 38.2185V39.9567V41.6946H9.06385H10.9055V39.8523C10.9055 38.839 10.8836 38.028 10.8571 38.0503C10.8305 38.0724 10.0018 38.1194 9.01538 38.1545ZM98.1433 39.9008L98.1437 41.6946H99.9854H101.827V39.9627V38.2305L99.985 38.1688L98.1429 38.107L98.1433 39.9008ZM5.47739 47.2216V49.0639H7.31909H9.16078V47.2216V45.3793H7.31909H5.47739V47.2216ZM44.3643 45.7187C44.1793 46.3127 43.8864 48.7071 43.7472 50.7643L43.6125 52.7556L39.1331 52.7036L34.6537 52.6516L34.7214 51.9729C34.8392 50.7897 35.6773 47.753 36.2195 46.5444L36.7422 45.3793H40.6061C44.197 45.3793 44.4624 45.4033 44.3643 45.7187ZM60.9892 45.8156C61.2022 46.6674 61.6975 50.844 61.6975 51.7888V52.7486H54.4961H47.2945L47.4244 50.7387C47.4959 49.6335 47.6832 47.9971 47.8404 47.1025C47.9978 46.2081 48.1268 45.4543 48.127 45.4278C48.127 45.4012 50.9965 45.3793 54.5037 45.3793H60.88L60.9892 45.8156ZM72.9206 46.8136C73.6401 48.5421 74.0737 50.1333 74.2344 51.6335L74.3538 52.7486H69.8923H65.4309L65.2941 50.817C65.2187 49.7549 65.0492 48.0968 64.9174 47.1324L64.6776 45.3793H68.5008H72.3237L72.9206 46.8136ZM99.8885 47.2216V49.0639H101.73H103.572V47.2216V45.3793H101.73H99.8885V47.2216ZM5.477 54.5424L5.47662 56.3363L7.3187 56.2744L9.16078 56.2127V54.4805V52.7486H7.31909H5.47739L5.477 54.5424ZM99.8885 54.4805V56.2127L101.731 56.2744L103.573 56.3363L103.572 54.5424L103.572 52.7486H101.73H99.8885V54.4805ZM43.7451 58.1301C43.8176 59.1701 43.9884 60.8282 44.1243 61.8147L44.3716 63.6086H40.5485H36.7255L36.143 62.2026C35.2361 60.0141 34.4149 56.6397 34.7157 56.3388C34.7704 56.2841 36.7947 56.2393 39.2141 56.2393H43.6129L43.7451 58.1301ZM61.6235 58.1301C61.5017 59.8861 61.2602 61.8021 61.0002 63.0753L60.8913 63.6086H54.5302H48.1692L48.0601 63.1722C47.847 62.3205 47.3517 58.1439 47.3517 57.199V56.2393H54.5533H61.7547L61.6235 58.1301ZM74.2294 57.43C74.0823 58.8383 73.4894 60.9401 72.801 62.4935L72.307 63.6086H68.4525H64.5981L64.6972 63.1722C64.9232 62.1774 65.1789 60.0921 65.3036 58.2271L65.4364 56.2393H69.895H74.3538L74.2294 57.43ZM5.47739 61.7663V63.6086H7.31909H9.16078V61.7663V59.9239H7.31909H5.47739V61.7663ZM99.8885 61.7663V63.6086H101.73H103.572V61.7663V59.9239H101.73H99.8885V61.7663ZM98.1433 68.9901L98.1437 70.7839H99.9854H101.827V69.0519V67.3198L99.985 67.2581L98.1429 67.1963L98.1433 68.9901ZM9.63671 67.7693L9.16078 68.2452V78.6293V89.0132H6.26544C4.67306 89.0132 3.14581 89.0985 2.87188 89.2027C2.59776 89.307 2.23019 89.6927 2.05514 90.06C1.74341 90.714 1.76589 90.8604 3.13728 97.0944C3.90749 100.596 4.5802 103.679 4.63215 103.946C4.70756 104.333 4.62653 104.274 4.23066 103.655C3.9579 103.228 3.73418 102.639 3.7336 102.346L3.73263 101.812H1.86631H0L0.0891751 102.743C0.29971 104.933 1.93436 107.198 4.06065 108.245C6.72684 109.558 9.90638 109.131 12.0119 107.178L12.6336 106.601L13.6871 107.414C16.4147 109.519 19.8948 109.523 22.674 107.423L23.7373 106.62L24.3489 107.202C24.6853 107.522 25.4404 108.033 26.0268 108.337C26.9913 108.838 27.278 108.891 29.0317 108.891C31.2123 108.891 31.9916 108.633 33.6489 107.36L34.5828 106.643L35.288 107.263C35.6758 107.603 36.4768 108.109 37.0681 108.386C37.9897 108.819 38.4061 108.891 39.9849 108.891C41.5698 108.891 41.9786 108.82 42.9161 108.38C45.2923 107.265 46.8797 105.116 47.2288 102.54L47.3273 101.812H45.5284H43.7298L43.484 102.633C43.2891 103.283 42.5042 104.63 42.5053 104.311C42.5055 104.27 43.1598 101.313 43.9591 97.74C44.7584 94.1669 45.4127 90.9967 45.4129 90.6952C45.4129 90.3476 45.2056 89.9396 44.8464 89.5801L44.2798 89.0132H28.465H12.6503V86.8806V84.7479L19.484 81.334C23.2424 79.4564 26.5138 77.7392 26.7538 77.5181C27.0715 77.2251 27.19 76.8973 27.19 76.3109C27.19 75.7244 27.0715 75.3967 26.7538 75.1037C26.5138 74.8826 22.9812 73.0347 18.9033 70.9974C10.9003 66.999 10.5341 66.8714 9.63671 67.7693ZM45.8873 69.1355C46.2318 70.0955 46.7881 71.4214 47.1237 72.0819L47.7338 73.2829L47.0097 72.9809C44.5188 71.9425 42.1802 70.3833 40.373 68.5563L39.1135 67.2829L42.1872 67.3365L45.2609 67.3902L45.8873 69.1355ZM59.85 67.7296C59.4902 68.948 57.7771 72.1567 57.051 72.9722C55.2506 74.9941 53.7986 74.9941 51.9982 72.9722C51.2722 72.1567 49.559 68.948 49.1992 67.7296L49.0703 67.2932H54.5246H59.9789L59.85 67.7296ZM68.8639 68.3746C66.9935 70.2832 64.4956 71.9704 62.0401 72.9839L61.3162 73.2825L61.9672 71.9847C62.5141 70.8945 62.8469 70.0555 63.7327 67.5356C63.7959 67.3557 64.6031 67.2932 66.8706 67.2932H69.9235L68.8639 68.3746ZM17.2061 74.2246L21.3766 76.308L17.2557 78.3838C14.9893 79.5255 13.026 80.4643 12.8926 80.4701C12.7059 80.478 12.6503 79.5227 12.6503 76.3109C12.6503 73.6773 12.7213 72.1414 12.843 72.1414C12.949 72.1414 14.9123 73.0789 17.2061 74.2246ZM73.3144 75.0354L72.7477 75.6023V79.9523C72.7477 84.3009 72.7479 84.3025 73.2231 84.8154C73.6439 85.2696 73.8442 85.3286 74.9678 85.3286H76.2372V96.2917C76.2372 107.979 76.2605 108.287 77.1775 108.778C77.7257 109.072 104.022 109.072 104.57 108.778C105.487 108.287 105.51 107.979 105.51 96.2917V85.3286H106.78C107.904 85.3286 108.104 85.2696 108.525 84.8154C109 84.3025 109 84.3009 109 79.9523V75.6023L108.433 75.0354L107.867 74.4686H90.8738H73.881L73.3144 75.0354ZM105.381 79.9471L105.348 81.7409H90.8738H76.3995L76.3669 79.9471L76.3342 78.153H90.8738H105.414L105.381 79.9471ZM101.827 95.3159V105.303H90.8738H79.9206V95.4452C79.9206 90.0232 79.9788 85.5289 80.0499 85.4579C80.1209 85.3867 85.0498 85.3286 91.0032 85.3286H101.827V95.3159ZM85.3488 90.8555V92.6979H90.8738H96.3989V90.8555V89.0132H90.8738H85.3488V90.8555ZM41.2452 93.1342C40.9634 94.3166 38.6279 104.921 38.6279 105.019C38.6279 105.252 37.4131 104.41 37.0803 103.946C36.8893 103.679 36.6222 103.09 36.4867 102.637L36.2401 101.812H34.4292H32.6181V102.307C32.6181 102.953 32.2054 103.724 31.5207 104.358C30.7012 105.117 30.2288 105.303 29.1222 105.303C27.3385 105.303 26.0381 104.33 25.592 102.662L25.3648 101.812H23.588H21.8115L21.6944 102.54C21.5505 103.434 20.5558 104.678 19.6986 105.036C18.881 105.378 17.4697 105.378 16.6522 105.036C15.795 104.678 14.8002 103.434 14.6564 102.54L14.5393 101.812H12.7627H10.986L10.7421 102.725C10.5768 103.343 10.2493 103.873 9.72434 104.373C9.29881 104.778 8.88414 105.109 8.8031 105.109C8.72207 105.109 8.19825 103.037 7.63935 100.503C7.08025 97.9704 6.46183 95.1778 6.26506 94.2978L5.90718 92.6979H23.6282H41.3493L41.2452 93.1342ZM67.2845 99.9698L67.3461 101.812H69.0777H70.8091V99.9702V98.1279L69.0158 98.1275L67.2226 98.1271L67.2845 99.9698ZM52.7448 101.716L52.6829 103.559L54.4762 103.558L56.2694 103.558V101.716V99.8732H54.538H52.8064L52.7448 101.716ZM59.9528 101.716V103.558H61.7945H63.6362V101.716V99.8732H61.7945H59.9528V101.716Z" fill="url(#paint0_linear_31_643)"/>
<defs>
<linearGradient id="paint0_linear_31_643" x1="52.5" y1="1" x2="51" y2="148" gradientUnits="userSpaceOnUse">
<stop stop-color="#52A863"/>
<stop offset="1" stop-color="#2AB7FF"/>
</linearGradient>
</defs>
</svg>
