<svg width="80" height="81" viewBox="0 0 80 81" fill="none" xmlns="http://www.w3.org/2000/svg">
<path fill-rule="evenodd" clip-rule="evenodd" d="M10.0195 0.587387C9.71908 0.71747 9.24306 1.04706 8.96182 1.31973C7.97294 2.27769 7.99058 2.00783 7.99058 16.2365V29.1069H4.78611C1.21674 29.1069 0.694365 29.2132 0.275311 30.025C-0.0917704 30.7362 -0.0917704 43.5816 0.275311 44.2929C0.694209 45.1043 1.21721 45.2109 4.78033 45.2109H7.97903L8.02382 52.6918C8.05956 58.6646 8.11075 60.2237 8.27775 60.4252C8.45271 60.6361 8.45271 60.7747 8.27775 61.2698C8.13526 61.6735 8.06862 62.6843 8.06862 64.442C8.06862 66.8987 8.08812 67.0634 8.47752 67.8952C9.18843 69.4138 10.5272 70.4598 12.036 70.6754L12.7508 70.7775L12.8288 73.7464C12.9196 77.2013 13.1074 77.8442 14.3717 79.0288C15.6659 80.2415 16.0245 80.3115 20.9446 80.3115C25.1337 80.3115 25.2543 80.3028 25.981 79.9443C27.0534 79.4153 28.0424 78.3589 28.4254 77.3332C28.7077 76.5776 28.7482 76.117 28.7482 73.6607V70.8524H39.9854H51.2225V73.6607C51.2225 76.117 51.263 76.5776 51.5453 77.3332C51.9283 78.3589 52.9173 79.4153 53.9897 79.9443C54.7164 80.3028 54.837 80.3115 59.0262 80.3115C63.9462 80.3115 64.3048 80.2415 65.599 79.0288C66.8633 77.8442 67.0511 77.2013 67.1419 73.7464L67.2199 70.7775L67.9347 70.6754C69.4435 70.4598 70.7823 69.4138 71.4932 67.8952C71.8826 67.0634 71.9021 66.8987 71.9021 64.442C71.9021 62.6843 71.8355 61.6735 71.693 61.2698C71.518 60.7747 71.518 60.6361 71.693 60.4252C71.86 60.2237 71.9112 58.6646 71.9469 52.6918L71.9917 45.2109H75.1904C78.7535 45.2109 79.2765 45.1043 79.6954 44.2929C80.0625 43.5816 80.0625 30.7362 79.6954 30.025C79.2764 29.2132 78.754 29.1069 75.1846 29.1069H71.9801V16.2365C71.9801 2.00798 71.9978 2.278 71.0089 1.31926C69.9164 0.259989 72.3965 0.337852 39.9513 0.344575C14.0666 0.350047 10.5007 0.378972 10.0195 0.587387ZM68.7023 23.1265L68.702 42.7875L68.0226 43.2175C67.649 43.454 67.298 43.6474 67.2426 43.6474C67.1872 43.6474 67.1408 38.3883 67.1396 31.9603C67.1371 18.8814 67.1508 19.0683 66.0527 17.2133C65.2818 15.9113 64.3947 15.0226 63.095 14.2503C61.1729 13.1085 62.3491 13.1639 39.9854 13.1639C17.6216 13.1639 18.7978 13.1085 16.8758 14.2503C15.576 15.0226 14.6889 15.9113 13.918 17.2133C12.8199 19.0683 12.8337 18.8814 12.8312 31.9603C12.8299 38.3883 12.7836 43.6474 12.7281 43.6474C12.6727 43.6474 12.3217 43.4539 11.9481 43.2175L11.2687 42.7875L11.2684 23.1265L11.2681 3.46548H39.9854H68.7026L68.7023 23.1265ZM61.0551 16.7729C62.147 17.2925 63.016 18.163 63.5346 19.2568L63.9424 20.1168L63.9869 34.2274L64.0315 48.338H63.1625C62.6846 48.338 62.0677 48.4361 61.7914 48.5562C61.5152 48.6763 60.4815 49.5919 59.4944 50.5908L57.6995 52.4071L57.6215 55.1803L57.5435 57.9535H39.9854H22.4272L22.3492 55.1803L22.2712 52.4071L20.4763 50.5908C19.4892 49.5919 18.4555 48.6763 18.1793 48.5562C17.903 48.4361 17.2861 48.338 16.8082 48.338H15.9392L15.9838 34.2274L16.0283 20.1168L16.4361 19.2568C17.1459 17.7601 18.4827 16.703 19.9956 16.4421C20.3888 16.3744 29.5949 16.3292 40.4536 16.3417L60.1967 16.3644L61.0551 16.7729ZM19.4619 19.865C18.7063 20.2143 18.2308 20.7093 17.9086 21.482C17.6997 21.983 17.667 23.3359 17.667 31.5166V40.972L18.0182 41.3677C18.2431 41.621 19.7729 42.3693 22.2712 43.4481L26.173 45.1328H39.9854H53.7977L57.6995 43.4481C60.1978 42.3693 61.7276 41.621 61.9525 41.3677L62.3037 40.972L62.3002 31.4825C62.297 22.5908 62.2787 21.9536 62.0087 21.3676C61.66 20.6107 61.1659 20.1343 60.3946 19.8116C59.883 19.5974 57.5336 19.57 39.9513 19.573C20.9717 19.5763 20.0584 19.5892 19.4619 19.865ZM59.1446 31.0125L59.1042 39.3284L56.1388 40.6211L53.1735 41.9137L50.6418 41.9207L48.1102 41.9276L48.5453 41.1849L48.9804 40.4423L51.5451 40.3578C52.9557 40.3114 54.2287 40.2176 54.3736 40.1493C54.7971 39.9499 55.1244 39.325 55.1244 38.7159C55.1244 38.3001 55.004 38.0306 54.6682 37.6941L54.212 37.2371H48.7586H43.3055L42.9114 37.6317C42.4441 38.1 42.3367 38.5375 42.5176 39.2365C42.7018 39.9487 43.4238 40.3627 44.4821 40.3635L45.3113 40.3641L44.8865 41.1458L44.4618 41.9276H38.3121H32.1622L32.5816 41.1559L33.0008 40.3843L35.6225 40.335C38.1244 40.2881 38.2622 40.2692 38.6335 39.9193C39.129 39.4524 39.2643 38.9072 39.048 38.2504C38.7148 37.239 38.7032 37.2371 32.8012 37.2371C29.4494 37.2371 27.3679 37.2967 27.1789 37.3981C26.7122 37.6481 26.3654 38.4507 26.4737 39.0292C26.6303 39.8657 27.1992 40.2618 28.3483 40.3352L29.3431 40.3987L28.9184 41.1241C28.5022 41.8352 28.4771 41.8502 27.6455 41.8852C26.8865 41.9171 26.4853 41.7845 23.8319 40.6249L20.8665 39.3287L20.7727 31.1299C20.7211 26.6206 20.7076 22.8782 20.7429 22.8138C20.778 22.7494 29.4419 22.6965 39.996 22.6965H59.185L59.1446 31.0125ZM7.99058 37.1589V41.9276H5.57146H3.15234V37.1589V32.3902H5.57146H7.99058V37.1589ZM76.8184 37.1589V41.9276H74.3993H71.9801V37.1589V32.3902H74.3993H76.8184V37.1589ZM12.826 52.833L12.8288 58.0317H12.0485H11.2681V52.3236V46.6158L12.0456 47.125L12.8232 47.6344L12.826 52.833ZM68.7026 52.3249V58.0317H67.9223H67.1419V52.8124V47.5933L67.8832 47.1075C68.2911 46.8403 68.6422 46.6209 68.6636 46.62C68.685 46.6189 68.7026 49.1861 68.7026 52.3249ZM26.7636 48.4458C26.5733 48.4837 26.2398 48.7265 26.0222 48.9856C25.3043 49.8403 25.5982 50.9603 26.6566 51.4033C27.4303 51.7271 52.5404 51.7271 53.3141 51.4033C54.4133 50.9432 54.6763 49.8098 53.8886 48.9268L53.4333 48.4161L40.2713 48.3966C33.0323 48.386 26.9538 48.408 26.7636 48.4458ZM18.0925 52.7509L19.2278 53.8806V55.9616V58.0426L17.628 57.998L16.0283 57.9535L15.986 54.7874L15.9439 51.6213H16.4506C16.8708 51.6213 17.1514 51.8144 18.0925 52.7509ZM63.9847 54.7874L63.9424 57.9535L62.3427 57.998L60.7429 58.0426V55.9691V53.8957L61.8706 52.7586C62.8161 51.805 63.0812 51.6213 63.5126 51.6213H64.0269L63.9847 54.7874ZM26.4243 53.4031C25.9823 53.6484 25.64 54.2162 25.6322 54.717C25.6249 55.1986 26.0274 55.9519 26.3985 56.1508C26.5977 56.2576 31.171 56.3118 39.9854 56.3118C48.7997 56.3118 53.3731 56.2576 53.5722 56.1508C53.9304 55.9588 54.344 55.207 54.344 54.7483C54.344 54.2314 53.9373 53.5758 53.49 53.3716C52.8621 53.0851 26.9427 53.1151 26.4243 53.4031ZM67.838 61.4007C68.5873 61.7569 68.7031 62.1718 68.6992 64.4884C68.6954 66.6925 68.6051 66.9899 67.8155 67.3944C67.5681 67.521 59.9242 67.569 39.9854 67.569C20.0465 67.569 12.4026 67.521 12.1552 67.3944C11.3656 66.9899 11.2753 66.6925 11.2715 64.4884C11.2695 63.2761 11.3411 62.2637 11.4449 62.0355C11.8654 61.1111 10.0685 61.1662 39.9618 61.1623C64.3482 61.159 67.3843 61.1851 67.838 61.4007ZM28.28 62.9263C27.1366 63.3171 26.8939 64.8731 27.8631 65.5987C28.2712 65.9044 28.5334 65.9308 31.6074 65.976C33.4255 66.0027 35.1488 65.9805 35.4373 65.9267C37.1356 65.609 37.1359 63.1598 35.4376 62.8194C34.5556 62.6427 28.8612 62.7278 28.28 62.9263ZM44.4064 62.8257C44.2199 62.8649 43.8862 63.0785 43.6651 63.3C42.907 64.0594 43.2262 65.486 44.2329 65.8374C44.5174 65.9367 46.0609 66.0053 48.0073 66.0052C50.83 66.005 51.3786 65.966 51.8467 65.7316C52.6007 65.3542 52.8747 64.7388 52.6392 63.9515C52.3135 62.8626 52.0894 62.8035 48.1865 62.7773C46.2939 62.7647 44.5929 62.7864 44.4064 62.8257ZM25.6267 73.2525C25.6267 77.2868 25.751 77.1845 20.8511 77.1845C15.8596 77.1845 16.0531 77.332 15.9762 73.4712L15.9239 70.8524H20.7754H25.6267V73.2525ZM63.9946 73.4712C63.9176 77.332 64.1111 77.1845 59.1196 77.1845C54.2198 77.1845 54.344 77.2868 54.344 73.2525V70.8524H59.1953H64.0468L63.9946 73.4712Z" fill="url(#paint0_linear_31_632)"/>
<defs>
<linearGradient id="paint0_linear_31_632" x1="39.9854" y1="0.34082" x2="40.1709" y2="100.194" gradientUnits="userSpaceOnUse">
<stop stop-color="#52A863"/>
<stop offset="1" stop-color="#25ACE3"/>
</linearGradient>
</defs>
</svg>
