<svg width="91" height="94" viewBox="0 0 91 94" fill="none" xmlns="http://www.w3.org/2000/svg">
<path fill-rule="evenodd" clip-rule="evenodd" d="M8.89705 0.131345C8.62432 0.174081 7.77639 0.428342 7.01276 0.695933C4.2254 1.67298 1.8032 4.05406 0.616697 6.98345L0.0706503 8.3316L0.0180888 46.4178C-0.0283242 80.0821 0.000832364 84.6547 0.269988 85.8011C1.10344 89.3535 4.03261 92.4566 7.59947 93.5658L8.99622 94H35.4754H61.9546L63.4208 93.5254C66.6802 92.4703 69.2137 90.0071 70.4093 86.7309C70.7506 85.7956 70.8516 84.9727 70.9295 82.4906C70.9827 80.7969 70.973 79.2007 70.9077 78.9437C70.5259 77.4399 68.5855 76.9271 67.3627 78.0067L66.7149 78.5785L66.6151 81.7804C66.5217 84.7804 66.4806 85.0523 65.9645 86.092C65.3043 87.4226 64.184 88.4702 62.6726 89.1706L61.5579 89.6872H35.5746C10.1095 89.6872 9.56944 89.6793 8.50035 89.2961C6.98459 88.7527 5.33892 87.1295 4.76411 85.6106L4.33509 84.4775V46.951C4.33509 9.44568 4.33529 9.42392 4.74685 8.33669C5.24847 7.01187 6.61746 5.56413 8.00449 4.89172L8.99622 4.41084L26.1036 4.3587L43.2109 4.30636L43.2139 11.122C43.216 16.4377 43.2811 18.2074 43.5096 19.1646C44.3377 22.6361 46.9196 25.4625 50.5142 26.8328L51.8389 27.3378L59.2273 27.4045L66.6157 27.4709L66.6165 33.3883C66.6171 38.9076 66.6433 39.3477 67.0037 39.9321C67.8163 41.249 69.9592 41.1767 70.6755 39.8078C70.9533 39.2767 70.9859 38.271 70.9365 31.7532L70.8801 24.3055L58.5793 12.1528L46.2785 0L27.8357 0.026661C17.6921 0.0413639 9.16977 0.0884129 8.89705 0.131345ZM62.3043 23.0956C61.6755 23.1291 59.1976 23.1291 56.7976 23.0956C52.5665 23.0362 52.4009 23.0189 51.3431 22.5222C50.0298 21.9056 48.9104 20.8313 48.1993 19.5057L47.6737 18.5255L47.616 12.9385L47.5584 7.35141L55.5028 15.1929L63.4473 23.0344L62.3043 23.0956ZM13.0153 33.0451C12.4197 33.3646 11.8722 34.2503 11.8722 34.8947C11.8722 35.5589 12.429 36.4334 13.0558 36.7537C13.5548 37.0088 15.1572 37.0509 24.3085 37.0503C34.5356 37.0497 35.0059 37.0336 35.6134 36.6676C36.5201 36.1213 36.8355 35.0139 36.364 34.0321C35.7245 32.6998 36.0784 32.7375 24.2292 32.7461C15.1773 32.7528 13.4759 32.7981 13.0153 33.0451ZM78.8634 38.9634C78.1366 39.419 50.0713 63.7198 49.7968 64.1311C49.4029 64.7214 47.1381 75.6938 47.2685 76.3807C47.4531 77.3535 48.3822 78.0229 49.5475 78.0229C51.6317 78.0229 60.8982 77.4115 61.3133 77.2466C61.925 77.0037 90.013 52.6869 90.566 51.9215C91.1767 51.0762 91.142 50.175 90.4676 49.3675C88.356 46.8394 81.3554 39.0646 81.0166 38.8713C80.4158 38.5288 79.4939 38.5682 78.8634 38.9634ZM82.7831 47.166C84.3748 48.9555 85.6504 50.4855 85.6175 50.5663C85.5845 50.6471 79.7131 55.7752 72.5697 61.9622L59.5818 73.211L55.859 73.4116C52.936 73.569 52.1363 73.5603 52.1363 73.3712C52.1365 73.2384 52.4514 71.6505 52.8364 69.8425C53.438 67.0166 53.6122 66.4808 54.0761 66.0286C55.17 64.9621 79.5965 43.9124 79.7401 43.9124C79.8218 43.9124 81.1912 45.3766 82.7831 47.166ZM13.0153 47.1598C12.4197 47.4793 11.8722 48.365 11.8722 49.0094C11.8722 49.6753 12.4296 50.5485 13.0609 50.8712C13.579 51.1358 16.1202 51.165 34.6937 51.1193L55.7392 51.0678L56.318 50.4275C57.1655 49.4901 57.1302 48.4168 56.2224 47.5195L55.548 46.853L34.5531 46.8608C16.3695 46.8677 13.4854 46.9077 13.0153 47.1598ZM13.0153 61.2745C12.4197 61.594 11.8722 62.4797 11.8722 63.1241C11.8722 63.8469 12.4706 64.7138 13.1682 65.0019C13.7305 65.234 16.2642 65.2805 28.3782 65.2801C41.8191 65.2799 42.9657 65.254 43.6076 64.937C45.0529 64.2235 45.1182 62.1784 43.7226 61.3372C43.1391 60.9857 42.4496 60.9694 28.3349 60.9763C15.6505 60.9824 13.4812 61.0245 13.0153 61.2745ZM13.1131 75.2841C12.574 75.4984 11.874 76.5795 11.873 77.1996C11.8716 77.9579 12.456 78.8224 13.1682 79.1166C13.7305 79.3487 16.2606 79.3952 28.3482 79.3952C41.1467 79.3952 42.931 79.3587 43.5128 79.0861C44.1713 78.7771 44.7983 77.8128 44.7969 77.1112C44.7957 76.5342 44.0507 75.4821 43.4953 75.2735C42.8422 75.0281 13.7319 75.0383 13.1131 75.2841Z" fill="url(#paint0_linear_31_637)"/>
<defs>
<linearGradient id="paint0_linear_31_637" x1="33.6304" y1="2.3632e-07" x2="33.6304" y2="114.284" gradientUnits="userSpaceOnUse">
<stop stop-color="#52A863"/>
<stop offset="1" stop-color="#2AB7FF"/>
</linearGradient>
</defs>
</svg>
