<svg width="633" height="712" viewBox="0 0 633 712" fill="none" xmlns="http://www.w3.org/2000/svg">
<mask id="mask0_0_163" style="mask-type:alpha" maskUnits="userSpaceOnUse" x="0" y="0" width="633" height="712">
<rect width="633" height="712" fill="#F4F4F4"/>
</mask>
<g mask="url(#mask0_0_163)">
<g opacity="0.03">
<path d="M-306.096 84.2534L-39.2047 -1040.98L1124.44 84.2534" stroke="#F4F4F4" stroke-width="4"/>
<path d="M-268.473 190.882L-1.58168 -934.348L1162.06 190.882" stroke="#F4F4F4" stroke-width="4"/>
<path d="M-230.857 297.511L36.0336 -827.719L1199.68 297.511" stroke="#F4F4F4" stroke-width="4"/>
<path d="M-193.238 404.138L73.6527 -721.092L1237.3 404.138" stroke="#F4F4F4" stroke-width="4"/>
<path d="M-155.617 510.766L111.274 -614.464L1274.92 510.766" stroke="#F4F4F4" stroke-width="4"/>
<path d="M-118 617.394L148.891 -507.836L1312.54 617.394" stroke="#F4F4F4" stroke-width="4"/>
<path d="M-80.3809 724.023L186.51 -401.207L1350.15 724.023" stroke="#F4F4F4" stroke-width="4"/>
<path d="M-42.7617 830.651L224.129 -294.579L1387.77 830.651" stroke="#F4F4F4" stroke-width="4"/>
<path d="M-5.14062 937.279L261.75 -187.952L1425.39 937.279" stroke="#F4F4F4" stroke-width="4"/>
<path d="M32.4746 1043.91L299.366 -81.324L1463.01 1043.91" stroke="#F4F4F4" stroke-width="4"/>
<path d="M70.0957 1150.53L336.987 25.3038L1500.63 1150.53" stroke="#F4F4F4" stroke-width="4"/>
<path d="M107.715 1257.16L374.606 131.932L1538.25 1257.16" stroke="#F4F4F4" stroke-width="4"/>
<path d="M145.334 1363.79L412.225 238.561L1575.87 1363.79" stroke="#F4F4F4" stroke-width="4"/>
<path d="M182.953 1470.42L449.844 345.188L1613.49 1470.42" stroke="#F4F4F4" stroke-width="4"/>
<path d="M220.57 1577.05L487.461 451.816L1651.11 1577.05" stroke="#F4F4F4" stroke-width="4"/>
<path d="M258.191 1683.67L525.082 558.444L1688.73 1683.67" stroke="#F4F4F4" stroke-width="4"/>
<path d="M295.807 1790.3L562.698 665.071L1726.34 1790.3" stroke="#F4F4F4" stroke-width="4"/>
</g>
</g>
</svg>
