<svg width="32" height="32" viewBox="0 0 32 32" fill="none" xmlns="http://www.w3.org/2000/svg">
<path d="M16 0C7.16479 0 0 7.16479 0 16C0 24.8352 7.16479 32 16 32C24.8352 32 32 24.8352 32 16C32 7.16479 24.8352 0 16 0ZM16.3391 25.3157C16.3389 25.3157 16.3394 25.3157 16.3391 25.3157H16.3352C14.7324 25.3149 13.1575 24.9131 11.7588 24.1504L6.68237 25.4817L8.04102 20.5208C7.20288 19.0691 6.76196 17.4221 6.7627 15.7349C6.76489 10.4565 11.0608 6.16235 16.3391 6.16235C18.9006 6.16333 21.3052 7.1604 23.113 8.96973C24.9211 10.7793 25.9163 13.1846 25.9153 15.7424C25.9131 21.021 21.6167 25.3157 16.3391 25.3157Z" fill="#52A863"/>
<path d="M16.3418 7.77734C11.9514 7.77734 8.38086 11.3464 8.37891 15.7336C8.37842 17.2371 8.79932 18.7012 9.59595 19.968L9.78516 20.269L8.98096 23.2053L11.9934 22.4153L12.2842 22.5876C13.5061 23.3127 14.907 23.6963 16.3352 23.6968H16.3384C20.7253 23.6968 24.2959 20.1274 24.2979 15.74C24.2986 13.6138 23.4714 11.6147 21.9688 10.1108C20.4661 8.60693 18.4675 7.77808 16.3418 7.77734ZM21.0234 19.1545C20.824 19.7131 19.8682 20.2231 19.4084 20.292C18.9961 20.3535 18.4746 20.3792 17.9014 20.1973C17.5537 20.0869 17.1082 19.9397 16.5371 19.6934C14.137 18.6572 12.5693 16.2412 12.4497 16.0815C12.3301 15.9219 11.4727 14.7844 11.4727 13.6069C11.4727 12.4297 12.0908 11.8508 12.3101 11.6116C12.5295 11.3721 12.7888 11.3123 12.9482 11.3123C13.1077 11.3123 13.2673 11.3137 13.4067 11.3206C13.5537 11.3279 13.751 11.2646 13.9451 11.7312C14.1445 12.2102 14.623 13.3875 14.6829 13.5071C14.7427 13.627 14.7825 13.7666 14.7029 13.9263C14.623 14.0859 14.3579 14.4304 14.1047 14.7444C13.9985 14.876 13.8601 14.9932 13.9998 15.2327C14.1392 15.4719 14.6196 16.2554 15.3308 16.8896C16.2449 17.7046 17.0159 17.957 17.2551 18.0769C17.4941 18.1965 17.6338 18.1765 17.7734 18.0171C17.9128 17.8574 18.3716 17.3186 18.531 17.0791C18.6904 16.8396 18.8501 16.8796 19.0693 16.9595C19.2888 17.0391 20.4651 17.6179 20.7043 17.7375C20.9436 17.8574 21.103 17.9172 21.1628 18.0171C21.2229 18.1169 21.2229 18.5957 21.0234 19.1545Z" fill="#52A863"/>
</svg>
