<svg width="74" height="78" viewBox="0 0 74 78" fill="none" xmlns="http://www.w3.org/2000/svg">
<path fill-rule="evenodd" clip-rule="evenodd" d="M6.76387 0.374091L6.38926 0.74803V15.0581C6.38926 29.3044 6.39064 29.3699 6.70558 29.7696C7.15222 30.3368 8.06777 30.3368 8.51441 29.7696C8.82905 29.3704 8.83073 29.2946 8.83073 15.9031V2.43807H25.6123H42.3939L42.4355 11.5182L42.4772 20.5982L42.8374 20.8895C43.1838 21.1696 43.5784 21.1807 53.1061 21.1807H63.0146L63.3891 20.8066C63.6349 20.5613 63.7637 20.2604 63.7637 19.9318C63.7637 19.4726 62.9582 18.6266 54.0346 9.71556L44.3055 0H25.722H7.13833L6.76387 0.374091ZM52.243 11.4285L59.5662 18.7427H52.2043H44.8423V11.4285C44.8423 7.40564 44.8597 4.11424 44.8811 4.11424C44.9025 4.11424 48.2152 7.40564 52.243 11.4285ZM15.9093 12.3948C15.6125 12.6498 15.4939 12.8959 15.4939 13.257C15.4939 13.6181 15.6125 13.8642 15.9093 14.1192L16.3248 14.476H27.7675H39.2103L39.603 14.084C39.9301 13.7571 39.9808 13.5983 39.9058 13.1316C39.7189 11.965 40.5309 12.038 27.7437 12.038H16.3248L15.9093 12.3948ZM15.8499 21.4855C15.3859 21.9489 15.3934 22.7533 15.8663 23.2379C16.1583 23.5373 16.3645 23.5426 27.6932 23.5426H39.2229L39.5911 23.115C40.0429 22.5907 40.0591 22.1102 39.6431 21.5823L39.3269 21.1807H27.7409C16.3585 21.1807 16.1498 21.1861 15.8499 21.4855ZM60.4578 23.3287C59.2015 23.5383 57.3166 24.2922 56.1262 25.0611C53.683 26.6394 51.9331 29.0444 51.1442 31.9084C50.7865 33.2064 50.7832 36.3042 51.138 37.6377C51.5863 39.3229 52.6953 41.3289 53.8777 42.5934C56.2313 45.1098 59.0681 46.3479 62.4825 46.3485C66.944 46.3492 70.9039 43.8639 72.8411 39.8472C73.7133 38.0386 74 36.7984 74 34.8347C74 31.4389 72.7866 28.6126 70.3541 26.3435C67.6548 23.8251 64.0555 22.7288 60.4578 23.3287ZM64.5639 25.8946C68.7832 26.9721 71.5459 30.4637 71.5459 34.7184C71.5459 37.3829 70.7275 39.3817 68.8818 41.2249C67.0475 43.0565 65.0027 43.9005 62.3904 43.9043C58.1628 43.9104 54.605 41.1103 53.5358 36.9354C52.7397 33.8273 53.6341 30.6782 55.9772 28.3383C58.3137 26.0052 61.4747 25.1056 64.5639 25.8946ZM61.9871 26.5128C61.5212 26.7005 61.1696 27.2646 61.1696 27.8246C61.1696 28.2135 61.0834 28.3412 60.7195 28.4917C59.4388 29.0216 58.5062 30.5697 58.512 32.1563C58.52 34.3686 59.5023 35.3045 62.6655 36.1142C63.5672 36.3451 63.9163 36.7312 63.9163 37.4971C63.9163 39.09 61.7811 39.5967 61.1007 38.1649C60.9708 37.8916 60.8645 37.5315 60.8645 37.3649C60.8645 36.9163 60.3946 36.4319 59.8593 36.3289C59.4936 36.2584 59.2891 36.3234 58.9438 36.6203C58.558 36.9518 58.5022 37.1004 58.5211 37.743C58.5605 39.0797 59.3932 40.3961 60.5829 41.0021C61.03 41.2299 61.1696 41.3928 61.1696 41.6864C61.1696 42.1807 61.5447 42.9067 61.8632 43.0287C62.7703 43.3763 63.6111 42.8136 63.6111 41.8585C63.6111 41.3655 63.6732 41.273 64.1328 41.0812C66.0239 40.2922 66.9248 37.6148 65.9538 35.6691C65.4469 34.6532 64.6605 34.1307 62.9565 33.6775C61.3898 33.2609 61.0566 33.0503 60.9343 32.4003C60.7401 31.3662 61.7896 30.3195 62.7735 30.5661C63.3137 30.7015 63.856 31.4094 63.9712 32.1297C64.0855 32.8429 64.5166 33.2187 65.2206 33.2187C66.3278 33.2187 66.6928 31.8866 65.9955 30.3912C65.6207 29.5874 64.5581 28.5469 63.9586 28.3967C63.6845 28.3279 63.6111 28.2028 63.6111 27.8051C63.6111 27.0912 63.4828 26.8392 62.9898 26.5846C62.503 26.3331 62.4433 26.3289 61.9871 26.5128ZM1.71508 32.4687C1.45231 32.5456 0.994996 32.8763 0.698816 33.2036C0.241346 33.7092 0.145672 33.9442 0.062204 34.7658C0.00818653 35.2978 -0.01516 44.8529 0.0103228 55.9994C0.0618987 78.559 -0.0256888 76.7965 1.08442 77.5872L1.58263 77.9421L16.2168 77.9824C30.6176 78.0221 30.861 78.0179 31.486 77.7158C31.8923 77.5192 32.241 77.1954 32.4543 76.8166L32.7876 76.2244V55.1251V34.0257L32.4438 33.5161C32.2546 33.2359 31.8598 32.8658 31.5664 32.6936C31.0392 32.3844 30.8608 32.3803 16.6129 32.3547C8.22311 32.3396 1.9931 32.3873 1.71508 32.4687ZM30.3461 55.1613V75.5802H16.384H2.42188V55.263C2.42188 44.0884 2.46766 34.8999 2.52366 34.8441C2.57951 34.7882 8.86247 34.7425 16.4858 34.7425H30.3461V55.1613ZM38.1283 35.8847C38.0024 35.9169 37.4239 35.9883 36.8427 36.0435C35.9484 36.1285 35.7169 36.2128 35.3371 36.5921C34.9636 36.9651 34.904 37.1227 34.9828 37.5295C35.1442 38.3639 35.5921 38.6007 36.7872 38.4831L37.814 38.3821L37.8567 45.1709L37.8994 51.9598L42.6679 56.7234C45.2907 59.3432 47.4364 61.5299 47.4364 61.5823C47.4364 61.7583 45.5411 62.9126 44.3846 63.4407C42.2068 64.4354 39.6844 64.8044 37.3708 64.4665C35.8854 64.2495 35.3568 64.3903 35.071 65.0791C34.834 65.6505 35.089 66.3247 35.636 66.5736C36.7889 67.0981 40.1224 67.1516 42.3246 66.6809C50.0942 65.0201 55.3947 57.7882 54.5952 49.9385C54.2986 47.0266 53.2643 44.4009 51.4801 42.0302C49.2692 39.0928 45.8853 36.9515 42.2535 36.1922C41.2369 35.9797 38.5427 35.7788 38.1283 35.8847ZM4.10176 36.5462C3.51154 37.1358 3.45996 37.6353 3.51749 42.2162C3.56067 45.6588 3.59806 46.1575 3.84129 46.5278C3.99266 46.7581 4.28884 47.0119 4.49972 47.0921C5.07331 47.3098 27.9822 47.2862 28.4107 47.0674C29.2702 46.6284 29.271 46.624 29.2746 41.7038C29.2768 38.8724 29.2188 37.0501 29.1208 36.8674C28.7102 36.101 28.9307 36.1139 16.3036 36.1139H4.53466L4.10176 36.5462ZM42.2065 38.7022C47.0639 39.8652 50.7661 43.6369 51.9304 48.609C52.0578 49.1538 52.1632 49.7546 52.1644 49.9442L52.1667 50.2887L46.2538 50.2489L40.3409 50.209L40.3009 44.3043L40.2611 38.3996L40.6061 38.4007C40.7959 38.4013 41.5162 38.5369 42.2065 38.7022ZM26.8365 41.6758V44.7995H16.384H5.93149V41.6758V38.552H16.384H26.8365V41.6758ZM4.0601 48.7995C3.59195 49.1545 3.49002 49.8316 3.49002 52.5857C3.49002 55.6218 3.62735 56.2662 4.33187 56.5337C4.55114 56.617 6.0264 56.6851 7.60999 56.6851C9.19359 56.6851 10.6688 56.617 10.8881 56.5337C11.5871 56.2684 11.7301 55.6153 11.7291 52.69C11.7283 49.9004 11.5913 49.0134 11.123 48.7632C10.682 48.5275 4.37612 48.56 4.0601 48.7995ZM12.8019 48.91C12.3504 49.3609 12.3176 49.6652 12.3692 52.9194C12.4322 56.8982 12.127 56.5934 16.1113 56.6563C19.3701 56.7078 19.6748 56.6751 20.1263 56.2242C20.408 55.9429 20.4277 55.7058 20.4277 52.5974C20.4277 48.229 20.8102 48.609 16.4124 48.609C13.3209 48.609 13.0835 48.6288 12.8019 48.91ZM21.6272 48.9001C21.2717 49.1873 21.2663 49.2342 21.2206 52.4628L21.1742 55.7347L21.5503 56.1718L21.9266 56.6089L24.9442 56.6563C28.221 56.7078 28.525 56.6752 28.9766 56.2242C29.2583 55.9429 29.278 55.7058 29.278 52.5974C29.278 48.2302 29.6578 48.609 25.2795 48.609C22.2667 48.609 21.9568 48.6337 21.6272 48.9001ZM61.6062 48.9002L61.2459 49.1916L61.2046 59.3382L61.1632 69.485H48.425C35.945 69.485 35.6807 69.4911 35.3855 69.7859C34.7626 70.408 34.8496 71.2107 35.5928 71.6969C35.9029 71.8997 37.5978 71.9231 49.4868 71.8874L63.0277 71.8469L63.3195 71.4871C63.6006 71.1404 63.6111 70.7316 63.6111 60.1996V49.2717L63.258 48.9403C62.8189 48.5284 62.0881 48.5107 61.6062 48.9002ZM9.2557 52.609L9.21221 54.1709H7.60999H6.00778L5.96429 52.609L5.92081 51.0471H7.60999H9.29918L9.2557 52.609ZM17.9862 52.6524V54.2577L16.4222 54.2143L14.8581 54.1709L14.8146 52.609L14.7711 51.0471H16.3787H17.9862V52.6524ZM26.8365 52.6471V54.2471H25.2343H23.6321V52.6471V51.0471H25.2343H26.8365V52.6471ZM52.1657 52.9899C52.1632 53.5851 51.5336 55.8281 51.0972 56.7958C50.5682 57.9692 49.4236 59.7327 49.1912 59.7327C49.1059 59.7327 47.4579 58.1556 45.529 56.228L42.0218 52.7233H47.0943C51.8239 52.7233 52.1667 52.7412 52.1657 52.9899ZM4.31157 57.5132C3.60096 57.822 3.49002 58.3484 3.49002 61.4089C3.49002 64.5107 3.59699 64.9988 4.34499 65.311C5.07179 65.6143 10.156 65.6109 10.8851 65.3068C11.6058 65.006 11.7283 64.44 11.7283 61.4089C11.7283 58.3778 11.6058 57.8118 10.8851 57.511C10.1676 57.2118 5.00144 57.2134 4.31157 57.5132ZM13.1402 57.5223C12.8639 57.6422 12.5759 57.9147 12.4917 58.1358C12.2946 58.6537 12.2947 64.1645 12.492 64.6825C12.7595 65.3852 13.4059 65.5231 16.4327 65.5231C19.2587 65.5231 20.0131 65.4025 20.2783 64.9077C20.4742 64.542 20.4742 58.2758 20.2783 57.9101C20.0114 57.4121 19.2623 57.2945 16.3994 57.3006C14.364 57.305 13.5066 57.3634 13.1402 57.5223ZM22.1474 57.4018C21.9602 57.4379 21.6666 57.6459 21.4948 57.8638C21.1882 58.2531 21.1833 58.4005 21.2248 65.9432L21.2669 73.6264L21.6272 73.9176C21.9571 74.1842 22.2661 74.2088 25.3009 74.2088C28.5672 74.2088 28.6191 74.2037 28.9463 73.8562C29.278 73.5034 29.278 73.5023 29.2731 65.8181C29.2678 57.3932 29.3038 57.7166 28.3425 57.4412C27.8485 57.2998 22.8415 57.2678 22.1474 57.4018ZM9.21221 61.4089V63.0089H7.60999H6.00778L5.96353 61.5727C5.93927 60.7828 5.95514 60.0433 5.99893 59.9293C6.06058 59.769 6.43443 59.7318 7.6454 59.7655L9.21221 59.8089V61.4089ZM17.9862 61.4142V63.0957L16.4222 63.0523L14.8581 63.0089L14.8138 61.5727C14.7896 60.7828 14.8045 60.0457 14.8473 59.9346C14.9045 59.7856 15.3255 59.7327 16.4556 59.7327H17.9862V61.4142ZM26.8365 65.7517V71.7707H25.2343H23.6321V65.8533C23.6321 62.5987 23.6779 59.8901 23.7339 59.8344C23.7897 59.7784 24.5107 59.7327 25.3361 59.7327H26.8365V65.7517ZM4.32393 66.2777C3.62201 66.5618 3.56906 66.7902 3.51566 69.7607C3.45966 72.8892 3.52222 73.479 3.95634 73.9125C4.23177 74.1876 4.48797 74.2088 7.54377 74.2088C9.47131 74.2088 10.954 74.1449 11.123 74.0546C11.5913 73.8043 11.7283 72.9173 11.7291 70.1277C11.7301 67.2025 11.5871 66.5494 10.8881 66.2841C10.4117 66.1032 4.76859 66.0976 4.32393 66.2777ZM13.1063 66.3283C12.4214 66.6744 12.3451 67.0634 12.3426 70.2164C12.3402 73.2765 12.4491 73.89 13.0339 74.1141C13.1697 74.1661 14.7395 74.2088 16.5224 74.2088C20.7869 74.2088 20.4277 74.5694 20.4277 70.2876C20.4277 68.5189 20.385 66.9608 20.3329 66.8252C20.1085 66.2413 19.4941 66.1325 16.4298 66.1349C14.3744 66.1365 13.3705 66.195 13.1063 66.3283ZM9.2557 70.2088L9.29918 71.7707H7.61533H5.93149V70.2723C5.93149 69.4481 5.97955 68.726 6.03815 68.6673C6.0969 68.6087 6.83513 68.5802 7.67851 68.6038L9.21221 68.6469L9.2557 70.2088ZM17.9862 70.1707V71.7707H16.384H14.7818V70.2723C14.7818 69.4481 14.8276 68.7281 14.8836 68.6724C14.9394 68.6164 15.6604 68.5707 16.4858 68.5707H17.9862V70.1707Z" fill="#52A863"/>
</svg>
