<svg width="78" height="78" viewBox="0 0 78 78" fill="none" xmlns="http://www.w3.org/2000/svg">
<path fill-rule="evenodd" clip-rule="evenodd" d="M16.9935 9.54245C7.85844 14.8266 0.297776 19.2683 0.192167 19.4128C0.0399269 19.6211 0 23.6924 0 38.9971C0 57.1803 0.0156965 58.3367 0.266688 58.6246C0.413442 58.7928 5.02516 61.5202 10.5151 64.6855C16.0051 67.851 23.4645 72.1554 27.0918 74.2511C32.5301 77.393 33.7596 78.0463 34.1019 77.976C34.3302 77.929 37.0046 76.4524 40.045 74.6947L45.5732 71.4987L46.7531 72.6649C51.7391 77.5925 58.8581 79.2523 65.4864 77.0328C67.4576 76.3728 68.8817 75.6373 70.4813 74.4531C73.5957 72.1475 75.8257 69.0966 77.0284 65.4956C79.7842 57.2442 76.5425 48.4853 69.0192 43.8559L68.0434 43.2554L67.9672 31.4399L67.891 19.6243L67.51 19.2599C67.3005 19.0595 63.4602 16.7813 58.976 14.1972C54.4919 11.6131 47.1542 7.37696 42.67 4.7834C38.1858 2.18999 34.3113 0.0382236 34.0598 0.00147122C33.675 -0.0544961 30.971 1.45723 16.9935 9.54245ZM38.8983 5.43671C41.1403 6.73021 42.9748 7.82927 42.9748 7.87929C42.9748 8.01563 12.9229 25.3426 12.7679 25.2957C12.4919 25.2121 3.80982 20.1526 3.80982 20.0754C3.80982 20.0311 10.5817 16.0763 18.8586 11.2872L33.9074 2.57948L34.3646 2.83217C34.616 2.97125 36.6561 4.14321 38.8983 5.43671ZM49.1016 11.3241C50.9358 12.3825 52.416 13.3101 52.3908 13.3857C52.3529 13.4997 22.7001 30.7121 22.3931 30.7984C22.2698 30.8332 15.3952 26.8893 15.3972 26.785C15.3996 26.6573 45.3212 9.41283 45.5516 9.40612C45.6697 9.40276 47.2672 10.2659 49.1016 11.3241ZM60.231 17.748C62.388 18.9858 64.1521 20.033 64.1512 20.075C64.1495 20.1474 34.3135 37.4021 34.033 37.493C33.9207 37.5293 27.2454 33.7594 25.3981 32.6162L24.8134 32.2542L29.1317 29.7579C31.5069 28.3848 38.3183 24.4494 44.268 21.0124L55.0859 14.7633L55.6975 15.1302C56.0339 15.3321 58.074 16.51 60.231 17.748ZM7.89365 25.3313L11.5819 27.4615V34.7396V42.0178L11.9247 42.3966C12.2475 42.7533 21.4539 48.1594 22.0735 48.3562C22.4821 48.486 23.1102 48.2107 23.3449 47.7991C23.4976 47.5315 23.5627 45.9163 23.6209 40.9586L23.6971 34.4683L28.0785 37.0014C30.4883 38.3944 32.5287 39.603 32.6128 39.6872C32.7139 39.7883 32.7526 45.7579 32.727 57.2554L32.6883 74.6707L28.6499 72.3335C22.632 68.851 14.5019 64.156 8.11888 60.4778L2.44636 57.2086L2.44225 39.7005L2.43829 22.1923L3.32186 22.6968C3.80784 22.9742 5.86514 24.1598 7.89365 25.3313ZM65.4733 42.1414C65.4415 42.1732 64.9306 42.0648 64.338 41.9004C58.1848 40.1941 51.33 42.0528 46.7041 46.6819C43.1327 50.256 41.3795 54.5252 41.3795 59.6486C41.3795 62.9417 41.8611 65.0062 43.3099 67.9243C43.7374 68.7853 44.0598 69.5167 44.0263 69.5493C43.9928 69.582 42.2166 70.6176 40.0793 71.8506C37.942 73.0837 35.9704 74.228 35.698 74.3936L35.2028 74.6947L35.2034 57.183L35.2041 39.6712L37.7559 38.1999C39.1595 37.3905 45.9655 33.4599 52.8803 29.465L65.4527 22.2014L65.4919 32.1424C65.5135 37.61 65.5052 42.1096 65.4733 42.1414ZM18.1348 31.245L21.1064 32.9711L21.1463 38.9517C21.1689 42.3483 21.1279 44.9324 21.0512 44.9324C20.9772 44.9324 19.3819 44.0476 17.5064 42.9662L14.0963 41.0001L14.0566 34.956L14.0166 28.912L14.5899 29.2155C14.9051 29.3825 16.5003 30.2957 18.1348 31.245ZM63.5792 44.2227C68.1332 45.4042 71.8333 48.4156 73.9177 52.6371C74.3328 53.4779 74.8558 54.8504 75.0799 55.6871C75.4409 57.0361 75.4871 57.4853 75.4871 59.6486C75.4871 61.7914 75.4392 62.2673 75.0936 63.5555C74.3228 66.4297 72.9634 68.7916 70.881 70.8756C68.7984 72.9595 66.4381 74.3198 63.566 75.0912C62.2787 75.437 61.8031 75.4849 59.6618 75.4849C57.5 75.4849 57.0512 75.4387 55.7031 75.0774C50.0557 73.5636 45.7563 69.2495 44.2334 63.5688C43.8841 62.2658 43.8366 61.7966 43.8366 59.6486C43.8366 57.5007 43.8841 57.0314 44.2334 55.7285C45.8805 49.5846 50.6843 45.1307 56.9424 43.9457C58.7237 43.6084 61.6885 43.7322 63.5792 44.2227ZM57.4521 45.2623C55.987 45.4691 53.656 46.3171 52.2308 47.1619C50.5309 48.1697 48.1909 50.5113 47.1839 52.2124C45.0152 55.8759 44.5553 60.319 45.9288 64.3337C46.6851 66.5443 47.6566 68.0699 49.4515 69.8661C51.2479 71.6637 52.7762 72.6378 54.9739 73.3858C66.3613 77.2612 77.2621 66.3528 73.3894 54.9574C72.6419 52.7582 71.6685 51.2288 69.8721 49.4311C68.0747 47.6324 66.5452 46.6581 64.3497 45.913C62.0487 45.132 59.8476 44.9243 57.4521 45.2623ZM61.4143 47.6836C65.9534 48.4002 69.6347 51.4743 71.0934 55.766C73.2394 62.0799 69.858 68.9352 63.5341 71.0914C57.243 73.2365 50.3759 69.8441 48.2302 63.5312C46.355 58.014 48.6958 51.9417 53.804 49.0719C56.0527 47.8085 58.9075 47.2878 61.4143 47.6836ZM58.9439 50.7362C58.8006 50.82 58.6124 51.1437 58.5257 51.456C58.3005 52.2676 58.3334 59.3531 58.5655 60.014C58.7273 60.4747 59.0923 60.7311 61.8715 62.3373C63.8042 63.4542 65.158 64.1437 65.4215 64.1451C66.2938 64.1498 66.9204 62.9588 66.4052 62.2756C66.3005 62.1365 65.0489 61.3504 63.624 60.5285L61.0333 59.034L60.9572 55.2238C60.8797 51.3507 60.8077 50.8782 60.2632 50.6691C59.8997 50.5296 59.2407 50.5631 58.9439 50.7362Z" fill="#52A863"/>
</svg>
