<?xml version="1.0" encoding="utf-8"?><svg xmlns="http://www.w3.org/2000/svg" xmlns:xlink="http://www.w3.org/1999/xlink"><symbol viewBox="0 0 32 16" id="arrow-right" xmlns="http://www.w3.org/2000/svg"><path d="M31.707 7.293a1 1 0 010 1.414l-6.364 6.364a1 1 0 01-1.414-1.414L29.586 8l-5.657-5.657A1 1 0 0125.343.93l6.364 6.364zM0 7h31v2H0V7z"/></symbol><symbol viewBox="0 0 10 11" id="cross" xmlns="http://www.w3.org/2000/svg"><path d="M9.3.901L.433 9.768m0-8.867L9.3 9.768"/></symbol><symbol viewBox="0 0 32 32" id="in" xmlns="http://www.w3.org/2000/svg"><path d="M16 0C7.165 0 0 7.165 0 16s7.165 16 16 16 16-7.165 16-16S24.835 0 16 0zm-4.65 24.188H7.455V12.463h3.897v11.723zM9.403 10.863h-.025c-1.308 0-2.153-.9-2.153-2.025 0-1.15.871-2.025 2.204-2.025 1.333 0 2.153.875 2.179 2.025 0 1.125-.846 2.025-2.205 2.025zm16 13.325h-3.897v-6.272c0-1.576-.564-2.651-1.974-2.651-1.076 0-1.717.725-2 1.425-.102.25-.127.6-.127.95v6.547h-3.897s.051-10.623 0-11.723h3.897v1.66c.517-.799 1.444-1.935 3.511-1.935 2.564 0 4.486 1.675 4.486 5.276v6.723z"/></symbol><symbol viewBox="0 0 32 32" id="wa" xmlns="http://www.w3.org/2000/svg"><path d="M16 0C7.165 0 0 7.165 0 16s7.165 16 16 16 16-7.165 16-16S24.835 0 16 0zm.34 25.316c-.001 0 0 0 0 0h-.005a9.573 9.573 0 01-4.576-1.166l-5.077 1.332 1.359-4.961a9.552 9.552 0 01-1.278-4.786c.002-5.278 4.298-9.573 9.576-9.573a9.515 9.515 0 016.774 2.808 9.514 9.514 0 012.802 6.772c-.002 5.279-4.298 9.574-9.576 9.574z"/><path d="M16.342 7.777c-4.39 0-7.961 3.57-7.963 7.957 0 1.503.42 2.967 1.217 4.234l.19.301-.805 2.936 3.012-.79.291.173a7.947 7.947 0 004.051 1.109h.003c4.387 0 7.958-3.57 7.96-7.957a7.908 7.908 0 00-2.33-5.63 7.907 7.907 0 00-5.626-2.333zm4.681 11.377c-.199.56-1.155 1.07-1.615 1.138-.412.061-.933.087-1.507-.095-.347-.11-.793-.257-1.364-.504-2.4-1.036-3.968-3.452-4.087-3.612-.12-.16-.977-1.297-.977-2.474 0-1.177.618-1.756.837-1.995a.88.88 0 01.638-.3c.16 0 .32.002.459.009.147.007.344-.056.538.41.2.48.678 1.656.738 1.776.06.12.1.26.02.42-.08.159-.345.503-.598.817-.107.132-.245.25-.105.489s.62 1.022 1.33 1.657c.915.815 1.686 1.067 1.925 1.187.24.12.379.1.518-.06.14-.16.599-.698.758-.938.16-.24.32-.2.538-.12.22.08 1.396.659 1.635.779.24.12.399.18.459.28.06.099.06.578-.14 1.136z"/></symbol></svg>