<svg width="77" height="77" viewBox="0 0 77 77" fill="none" xmlns="http://www.w3.org/2000/svg">
<path fill-rule="evenodd" clip-rule="evenodd" d="M10.3018 0.181678C9.60831 0.579325 9.63478 -0.198072 9.62981 19.8966L9.625 38.9662L9.99421 39.3353C10.3976 39.7388 10.8187 39.8002 11.3268 39.5296C12.0513 39.1437 12.0215 39.951 12.0264 20.6418L12.0312 2.40633H32.4844H52.9375V8.05295V13.6997L53.3067 14.0688L53.6758 14.438H59.3223H64.9688V26.1004V37.763L65.338 38.1321C65.7413 38.5356 66.1624 38.597 66.6706 38.3264C67.389 37.9437 67.3652 38.3911 67.3702 25.1951L67.375 12.716L61.0172 6.35799L54.6595 0L32.631 0.00451188C16.3458 0.00797098 10.5242 0.0541425 10.3018 0.181678ZM59.2539 8.19657L63.0866 12.0317H59.2153H55.3438V8.19657C55.3438 6.08727 55.3612 4.36148 55.3824 4.36148C55.4038 4.36148 57.1459 6.08727 59.2539 8.19657ZM18.4161 7.58822C18.1833 7.82089 18.0469 8.1292 18.0469 8.42217C18.0469 8.71514 18.1833 9.02345 18.4161 9.25611L18.7851 9.62533H27.0703H35.3555L35.7245 9.25611C36.213 8.76778 36.213 8.07656 35.7245 7.58822L35.3555 7.219H27.0703H18.7851L18.4161 7.58822ZM18.4161 12.4009C18.1833 12.6336 18.0469 12.9419 18.0469 13.2348C18.0469 13.5278 18.1833 13.8361 18.4161 14.0688C18.7385 14.3914 18.9199 14.438 19.8516 14.438C20.7832 14.438 20.9646 14.3914 21.287 14.0688C21.5198 13.8361 21.6562 13.5278 21.6562 13.2348C21.6562 12.9419 21.5198 12.6336 21.287 12.4009C20.9646 12.0783 20.7832 12.0317 19.8516 12.0317C18.9199 12.0317 18.7385 12.0783 18.4161 12.4009ZM23.2286 12.4009C22.9958 12.6336 22.8594 12.9419 22.8594 13.2348C22.8594 13.5278 22.9958 13.8361 23.2286 14.0688C23.551 14.3914 23.7324 14.438 24.6641 14.438C25.5957 14.438 25.7771 14.3914 26.0995 14.0688C26.3323 13.8361 26.4688 13.5278 26.4688 13.2348C26.4688 12.9419 26.3323 12.6336 26.0995 12.4009C25.7771 12.0783 25.5957 12.0317 24.6641 12.0317C23.7324 12.0317 23.551 12.0783 23.2286 12.4009ZM28.0411 12.4009C27.8083 12.6336 27.6719 12.9419 27.6719 13.2348C27.6719 13.5278 27.8083 13.8361 28.0411 14.0688C28.3635 14.3914 28.5449 14.438 29.4766 14.438C30.4082 14.438 30.5896 14.3914 30.912 14.0688C31.1448 13.8361 31.2812 13.5278 31.2812 13.2348C31.2812 12.9419 31.1448 12.6336 30.912 12.4009C30.5896 12.0783 30.4082 12.0317 29.4766 12.0317C28.5449 12.0317 28.3635 12.0783 28.0411 12.4009ZM21.9382 23.1089L19.418 25.6135L18.5699 24.8385C17.6723 24.0181 17.2851 23.9063 16.7173 24.3041C15.773 24.9656 16.0371 25.8004 17.6861 27.3669C18.7555 28.3829 18.9581 28.494 19.626 28.4313C20.0054 28.3956 25.6787 22.7899 25.9413 22.1912C26.0483 21.9474 26.0991 21.6429 26.0543 21.5144C25.8819 21.0205 25.359 20.6042 24.911 20.6042C24.5269 20.6042 24.0774 20.9829 21.9382 23.1089ZM31.6505 22.0262C31.4177 22.2589 31.2812 22.5672 31.2812 22.8602C31.2812 23.1531 31.4177 23.4615 31.6505 23.6941L32.0195 24.0633H45.1172H58.2149L58.5839 23.6941C58.8167 23.4615 58.9531 23.1531 58.9531 22.8602C58.9531 22.5672 58.8167 22.2589 58.5839 22.0262L58.2149 21.657H45.1172H32.0195L31.6505 22.0262ZM31.6505 26.8389C31.4177 27.0716 31.2812 27.3799 31.2812 27.6728C31.2812 27.9658 31.4177 28.2741 31.6505 28.5068L32.0195 28.876H35.4922H38.9649L39.3339 28.5068C39.5667 28.2741 39.7031 27.9658 39.7031 27.6728C39.7031 27.3799 39.5667 27.0716 39.3339 26.8389L38.9649 26.4697H35.4922H32.0195L31.6505 26.8389ZM41.2755 26.8389C41.0427 27.0716 40.9062 27.3799 40.9062 27.6728C40.9062 27.9658 41.0427 28.2741 41.2755 28.5068C41.5979 28.8294 41.7793 28.876 42.7109 28.876C43.6426 28.876 43.824 28.8294 44.1464 28.5068C44.3792 28.2741 44.5156 27.9658 44.5156 27.6728C44.5156 27.3799 44.3792 27.0716 44.1464 26.8389C43.824 26.5163 43.6426 26.4697 42.7109 26.4697C41.7793 26.4697 41.5979 26.5163 41.2755 26.8389ZM46.088 26.8389C45.8552 27.0716 45.7188 27.3799 45.7188 27.6728C45.7188 27.9658 45.8552 28.2741 46.088 28.5068C46.4104 28.8294 46.5918 28.876 47.5234 28.876C48.4551 28.876 48.6365 28.8294 48.9589 28.5068C49.1917 28.2741 49.3281 27.9658 49.3281 27.6728C49.3281 27.3799 49.1917 27.0716 48.9589 26.8389C48.6365 26.5163 48.4551 26.4697 47.5234 26.4697C46.5918 26.4697 46.4104 26.5163 46.088 26.8389ZM50.9005 26.8389C50.6677 27.0716 50.5312 27.3799 50.5312 27.6728C50.5312 27.9658 50.6677 28.2741 50.9005 28.5068C51.2229 28.8294 51.4043 28.876 52.3359 28.876C53.2676 28.876 53.449 28.8294 53.7714 28.5068C54.0042 28.2741 54.1406 27.9658 54.1406 27.6728C54.1406 27.3799 54.0042 27.0716 53.7714 26.8389C53.449 26.5163 53.2676 26.4697 52.3359 26.4697C51.4043 26.4697 51.2229 26.5163 50.9005 26.8389ZM21.9304 33.9398L19.4232 36.4469L18.5726 35.6694C17.6723 34.8466 17.2854 34.7347 16.7173 35.1326C15.773 35.7941 16.0371 36.6289 17.6861 38.1954C18.7555 39.2114 18.9581 39.3225 19.626 39.2598C20.0054 39.2241 25.6787 33.6184 25.9413 33.0197C26.1617 32.5172 26.1045 32.2559 25.6682 31.7711C25.4775 31.5594 25.1903 31.4327 24.9005 31.4327C24.5021 31.4327 24.0873 31.7829 21.9304 33.9398ZM31.6505 34.0579C31.4177 34.2906 31.2812 34.5989 31.2812 34.8918C31.2812 35.1848 31.4177 35.4931 31.6505 35.7258L32.0195 36.095H45.1172H58.2149L58.5839 35.7258C58.8167 35.4931 58.9531 35.1848 58.9531 34.8918C58.9531 34.5989 58.8167 34.2906 58.5839 34.0579L58.2149 33.6887H45.1172H32.0195L31.6505 34.0579ZM0 51.7362V62.5647H3.84173H7.68361L8.05267 62.1955C8.54113 61.7071 8.54113 61.0159 8.05267 60.5276C7.68887 60.1636 7.64601 60.1583 5.04485 60.1583H2.40625V51.7362V43.314H8.42188H14.4375V51.7362V60.1583H13.002C11.6783 60.1583 11.5377 60.1871 11.1973 60.5276C10.7089 61.0159 10.7089 61.7071 11.1973 62.1955C11.5492 62.5475 11.6526 62.5647 13.42 62.5647H15.2737L23.7662 69.2574C28.4371 72.9385 32.4748 76.0531 32.7388 76.1787C34.0489 76.8018 35.7432 76.7061 36.8182 75.9484L37.4697 75.4891L38.2977 76.2459C39.1064 76.9849 39.5004 77.1287 40.0937 76.901C40.2394 76.8452 42.8149 74.6224 45.817 71.9614L51.2752 67.1235L57.1378 64.7689L63.0004 62.4143H70.0002H77V51.661V40.9077H65.338H53.6758L53.3067 41.2769C52.8182 41.7652 52.8182 42.4565 53.3067 42.9448L53.6758 43.314H57.5176H61.3594L61.3561 51.9242L61.3528 60.5343L56.2052 62.603C53.3741 63.7409 51.0084 64.6714 50.9484 64.671C50.8884 64.6705 48.1602 61.7262 44.8856 58.128C41.611 54.5298 38.871 51.5858 38.7966 51.5858C38.7221 51.5858 36.7243 52.5503 34.3572 53.7289L30.053 55.8721L28.5992 55.8665C27.4497 55.8621 26.9252 55.7833 26.0928 55.4905C25.197 55.1753 25.0343 55.064 25.0021 54.7441C24.9685 54.4099 25.5374 53.9535 30.1154 50.6417C32.9485 48.5923 36.4005 46.1051 37.7864 45.1147L40.3063 43.314H41.4403C42.4437 43.314 42.6166 43.2714 42.9433 42.9448C43.1761 42.7121 43.3125 42.4038 43.3125 42.1108C43.3125 41.8179 43.1761 41.5096 42.9433 41.2769C42.5974 40.9308 42.4732 40.9077 40.9625 40.9077H39.3508L37.2675 42.4116C36.1219 43.2388 35.1001 43.9156 34.9971 43.9156C34.8941 43.9156 34.1355 43.2388 33.3115 42.4116L31.8133 40.9077H15.9067H0V51.7362ZM46.088 41.2769C45.8552 41.5096 45.7188 41.8179 45.7188 42.1108C45.7188 42.4038 45.8552 42.7121 46.088 42.9448C46.4355 43.2924 46.5546 43.314 48.125 43.314C49.6954 43.314 49.8145 43.2924 50.162 42.9448C50.3948 42.7121 50.5312 42.4038 50.5312 42.1108C50.5312 41.8179 50.3948 41.5096 50.162 41.2769C49.8145 40.9293 49.6954 40.9077 48.125 40.9077C46.5546 40.9077 46.4355 40.9293 46.088 41.2769ZM31.8502 44.4092L32.938 45.5044L28.769 48.5827C23.239 52.6659 23.1793 52.715 22.8488 53.4426C22.5148 54.1783 22.4762 55.3085 22.7618 55.9921C23.3663 57.4389 26.4524 58.6508 28.9818 58.4348C30.4421 58.31 30.5288 58.2775 34.7111 56.2837L38.3663 54.5409L38.7964 54.981C39.7771 55.984 48.877 66.0823 48.877 66.1676C48.877 66.2187 48.5488 66.5053 48.1477 66.8048L47.4185 67.3492L42.1757 62.1046C39.2921 59.22 36.744 56.7817 36.5132 56.6862C35.6624 56.3336 34.7038 57.1981 34.9681 58.0793C35.0258 58.2715 37.4363 60.8007 40.325 63.6997L45.5769 68.9706L44.5818 69.8499L43.5867 70.7289L38.374 65.5348C35.5069 62.6781 33.0038 60.2935 32.8116 60.2359C32.0016 59.9929 31.1158 60.8789 31.3589 61.6888C31.4165 61.881 33.7731 64.3563 36.5958 67.1895L41.7278 72.3407L40.9181 73.0549C40.4728 73.4478 40.0095 73.8277 39.8884 73.8993C39.7221 73.9973 38.4301 72.7957 34.61 68.9897C31.8279 66.2181 29.3944 63.9032 29.2022 63.8454C28.3922 63.6023 27.5058 64.4888 27.7499 65.2983C27.8078 65.4905 29.6545 67.4562 31.8535 69.6664L35.8516 73.6848L35.2716 73.9272C34.9084 74.079 34.507 74.1349 34.1973 74.0767C33.6037 73.9654 33.8356 74.1397 24.4385 66.7386L16.9189 60.8163L16.8801 52.0652L16.8413 43.314H23.8019H30.7624L31.8502 44.4092ZM74.5938 51.7362V60.1583H69.1797H63.7656V51.7362V43.314H69.1797H74.5938V51.7362Z" fill="#52A863"/>
</svg>
