<svg width="1440" height="1024" viewBox="0 0 1440 1024" fill="none" xmlns="http://www.w3.org/2000/svg">
<mask id="mask0_405_3" style="mask-type:alpha" maskUnits="userSpaceOnUse" x="0" y="0" width="1440" height="1024">
<rect width="1440" height="1024" fill="#D9D9D9"/>
</mask>
<g mask="url(#mask0_405_3)">
<g opacity="0.08">
<path d="M-417.404 121.184L-53.462 -1497.27L1533.33 121.184" stroke="#52A863" stroke-width="4"/>
<path d="M-366.102 274.552L-2.15931 -1343.9L1584.63 274.552" stroke="#52A863" stroke-width="4"/>
<path d="M-314.809 427.918L49.1337 -1190.53L1635.92 427.918" stroke="#52A863" stroke-width="4"/>
<path d="M-263.508 581.284L100.434 -1037.17L1687.22 581.284" stroke="#52A863" stroke-width="4"/>
<path d="M-212.207 734.65L151.735 -883.802L1738.52 734.65" stroke="#52A863" stroke-width="4"/>
<path d="M-160.91 888.016L203.032 -730.437L1789.82 888.016" stroke="#52A863" stroke-width="4"/>
<path d="M-109.611 1041.38L254.331 -577.068L1841.12 1041.38" stroke="#52A863" stroke-width="4"/>
<path d="M-58.3145 1194.75L305.628 -423.702L1892.42 1194.75" stroke="#52A863" stroke-width="4"/>
<path d="M-7.01172 1348.12L356.931 -270.336L1943.72 1348.12" stroke="#52A863" stroke-width="4"/>
<path d="M44.2812 1501.48L408.224 -116.971L1995.01 1501.48" stroke="#52A863" stroke-width="4"/>
<path d="M95.584 1654.85L459.526 36.395L2046.31 1654.85" stroke="#52A863" stroke-width="4"/>
<path d="M146.881 1808.21L510.823 189.761L2097.61 1808.21" stroke="#52A863" stroke-width="4"/>
<path d="M198.18 1961.58L562.122 343.129L2148.91 1961.58" stroke="#52A863" stroke-width="4"/>
<path d="M249.479 2114.95L613.421 496.495L2200.21 2114.95" stroke="#52A863" stroke-width="4"/>
<path d="M300.775 2268.31L664.718 649.861L2251.51 2268.31" stroke="#52A863" stroke-width="4"/>
<path d="M352.076 2421.68L716.018 803.227L2302.81 2421.68" stroke="#52A863" stroke-width="4"/>
<path d="M403.371 2575.04L767.313 956.592L2354.1 2575.04" stroke="#52A863" stroke-width="4"/>
</g>
</g>
</svg>
