<svg width="85" height="45" viewBox="0 0 85 45" fill="none" xmlns="http://www.w3.org/2000/svg">
<path d="M84.8363 22.4244C84.8363 25.5763 84.3645 28.4972 83.431 31.2074C82.4975 33.9075 80.9718 36.2664 78.8539 38.2739C76.746 40.2814 73.9856 41.8573 70.5829 43.0016C67.1801 44.1359 63.0245 44.708 58.106 44.708H24.8613V0.140869H58.106C63.0144 0.140869 67.1801 0.713016 70.5829 1.86735C73.9856 3.02168 76.746 4.58756 78.8539 6.59509C80.9718 8.59258 82.4875 10.9514 83.431 13.6716C84.3645 16.3718 84.8363 19.2927 84.8363 22.4244ZM39.9178 33.757H58.106C62.1412 33.757 65.0822 32.8134 66.9291 30.9163C68.7761 29.0192 69.6996 26.1886 69.6996 22.4144C69.6996 18.6403 68.7761 15.8096 66.9291 13.9125C65.0822 12.0154 62.1311 11.0719 58.106 11.0719H39.9178V33.757Z" fill="white"/>
<path d="M0 0H14.468V13.5034L0 17.3616V0Z" fill="white"/>
</svg>
